<svg xmlns="http://www.w3.org/2000/svg" id="graphic-wipro-benefits-1" width="462.5" height="208.4" viewBox="0 0 462.5 208.4">
    <defs>
        <clipPath id="clip-path">
            <path id="Rectangle_9515" fill="none" d="M0 0H462.5V208.4H0z"/>
        </clipPath>
        <style>
            .cls-11,.cls-2,.cls-3,.cls-4,.cls-6,.cls-8{fill:none}.cls-2{stroke:#869196}.cls-11,.cls-2,.cls-3,.cls-4,.cls-8{stroke-linejoin:round}.cls-11,.cls-2,.cls-3,.cls-4,.cls-6,.cls-8{stroke-width:2px}.cls-3{stroke:#ff6138}.cls-4,.cls-6{stroke:#879196}.cls-6{stroke-miterlimit:10}.cls-7{fill:#879196}.cls-8{stroke:#869095}.cls-9{fill:#ff6138}.cls-11{stroke:#859095}
        </style>
    </defs>
    <g id="graphic-wipro-benefits-1-2" transform="translate(231.25 104.2)">
        <g id="graphic-wipro-benefits-1-3" transform="translate(-231.25 -104.2)">
            <path id="Rectangle_9494" d="M0 0H10.5V10.51H0z" class="cls-2" transform="translate(288.6 76.1)"/>
            <path id="Rectangle_9495" d="M0 0H10.5V10.51H0z" class="cls-2" transform="translate(304.4 102.6)"/>
            <path id="Rectangle_9496" d="M0 0H10.5V10.51H0z" class="cls-2" transform="translate(313.2 57.3)"/>
            <path id="Rectangle_9497" d="M0 0H10.5V10.51H0z" class="cls-3" transform="translate(311.4 83.3)"/>
            <path id="Rectangle_9498" d="M0 0H10.5V10.51H0z" class="cls-2" transform="translate(337.7 50.1)"/>
            <path id="Rectangle_9499" d="M0 0H10.5V10.51H0z" class="cls-3" transform="translate(299.1 44.8)"/>
            <path id="Rectangle_9500" d="M0 0H10.5V10.51H0z" class="cls-2" transform="translate(330.7 76.1)"/>
            <path id="Rectangle_9501" d="M0 0H10.5V10.51H0z" class="cls-2" transform="translate(337.7 93.8)"/>
            <path id="Rectangle_9502" d="M0 0H10.5V10.51H0z" class="cls-3" transform="translate(371.1 37.8)"/>
            <path id="Rectangle_9503" d="M0 0H10.5V10.51H0z" class="cls-2" transform="translate(278.1 34.3)"/>
            <path id="Rectangle_9504" d="M0 0H10.5V10.51H0z" class="cls-2" transform="translate(77.7 76.2)"/>
            <path id="Rectangle_9505" d="M0 0H10.5V10.51H0z" class="cls-2" transform="translate(93.4 102.6)"/>
            <path id="Rectangle_9506" d="M0 0H10.5V10.51H0z" class="cls-2" transform="translate(102.2 57.3)"/>
            <path id="Rectangle_9507" d="M0 0H10.5V10.51H0z" class="cls-3" transform="translate(100.4 83.4)"/>
            <path id="Rectangle_9508" d="M0 0H10.5V10.51H0z" class="cls-2" transform="translate(126.7 50.1)"/>
            <path id="Rectangle_9509" d="M0 0H10.5V10.51H0z" class="cls-3" transform="translate(88.2 44.8)"/>
            <path id="Rectangle_9510" d="M0 0H10.5V10.51H0z" class="cls-2" transform="translate(119.7 76.1)"/>
            <path id="Rectangle_9511" d="M0 0H10.5V10.51H0z" class="cls-2" transform="translate(126.7 93.9)"/>
            <path id="Rectangle_9512" d="M0 0H10.5V10.51H0z" class="cls-3" transform="translate(160.1 37.8)"/>
            <path id="Rectangle_9513" d="M0 0H10.5V10.51H0z" class="cls-2" transform="translate(67.1 34.3)"/>
            <path id="Line_1557" d="M0 0L73 0" class="cls-4" transform="translate(16.5 177.1)"/>
            <path id="Line_1558" d="M0 0L68.1 0" class="cls-4" transform="translate(104.5 177.1)"/>
            <path id="Line_1559" d="M0 0L110 0" class="cls-4" transform="translate(274.5 177.1)"/>
            <path id="Line_1560" d="M0 0L11 0" class="cls-4" transform="translate(395.5 177.1)"/>
            <path id="Line_1561" d="M0 0L39 0" class="cls-4" transform="translate(419.5 177.1)"/>
            <g id="Group_7130" clip-path="url(#clip-path)">
                <path id="Path_9020" d="M205 207.4v-9.9l2.9-12.8" class="cls-4"/>
                <path id="Path_9021" d="M207.8 166.6c.1 7.2 1.8 14.5 11.6 14.9s12.6-7.2 13-14.5" class="cls-4"/>
                <path id="Path_9022" d="M214 155.5a22 22 0 0 0 15.6 2.4s2.2 9.3 3.4 9.3 3-4.1 2.3-9.8-4.3-14.3-14.9-14.9c-3.8-.2-3.5-2.7-4.7-2.7s-.2 3.5-1.1 3.8-2.4-1.3-3-.9-.1 2.7-.7 3.1c-2.7 2.2-5 5.6-5.9 10.9-.5 2.7-.1 9.6 2.7 9.9.4 0-.5-2.9 2.4-5.3s1-8.6 3.9-5.8z" class="cls-4"/>
                <path id="Path_9023" d="M210.3 184.1a9.6 9.6 0 0 0 9.8 8.3s8.8 0 8.5-8.5" class="cls-4"/>
                <path id="Path_9024" d="M213.5 180.5v2.8c-3.8.4-14.1 2.7-17.2 7.8s-2.7 5.8-2.6 16.3h53.8c.1-10.5.2-11.7-2.6-16.3s-13.9-7.3-18.6-7.8v-2.8" class="cls-4"/>
                <path id="Path_9025" d="M236.2 207.4v-9.9l-4.2-12.8" class="cls-4"/>
                <path id="Line_1562" d="M0 0L22.7 0" class="cls-3" transform="translate(209.3 196.1)"/>
                <path id="Line_1563" d="M0 0L22.7 0" class="cls-3" transform="translate(209.3 201.7)"/>
                <path id="Path_9026" d="M228.2 165.2a3.4 3.4 0 1 1-3.4-3.4 3.4 3.4 0 0 1 3.4 3.4z" class="cls-4"/>
                <path id="Path_9027" d="M218.7 165.2a3.4 3.4 0 1 1-3.4-3.4 3.4 3.4 0 0 1 3.4 3.4z" class="cls-4"/>
                <path id="Line_1564" d="M0 0L1.4 0" class="cls-4" transform="translate(219.2 164.9)"/>
                <path id="Path_9028" d="M216.4 146.3c1 1.8 6.2 3.6 8.5 3.6" class="cls-4"/>
                <path id="Path_9029" d="M254.6 116.2c-.3 7.1-2.4 15.1-13.6 14.7s-11.8-6.8-11.9-13.5v-9.1s14.5 3.1 25.5 0z" class="cls-6"/>
                <path id="Path_9030" d="M234.8 129.5v5.7l4.9 8.7a2.4 2.4 0 0 0 4.3 0l4.9-8.7v-5.7" class="cls-6"/>
                <path id="Path_9031" d="M240.5 159.2h28.2c.1-11.2.2-12.4-2.6-17.4s-13.5-7.6-17.2-8.1" class="cls-4"/>
                <path id="Path_9032" d="M234.8 133.7a42.7 42.7 0 0 0-9.9 2.8" class="cls-6"/>
                <path id="Line_1565" d="M0 0L0 5.7" class="cls-3" transform="translate(257.5 150.7)"/>
                <path id="Path_9033" d="M229.2 118.2c-3.4-2.1-7.9-13.6.2-21.8 5.8-5.9 18.1-8.1 26 .8 3.8 4.3 6.9 15.4-.7 20.9" class="cls-6"/>
                <path id="Path_9034" d="M239 116a2.1 2.1 0 1 1-2.1-2.1 2.1 2.1 0 0 1 2.1 2.1" class="cls-7"/>
                <path id="Path_9035" d="M249 116a2.1 2.1 0 1 1-2.1-2.1 2.1 2.1 0 0 1 2.1 2.1" class="cls-7"/>
                <path id="Line_1566" d="M0 14.1L0 0" class="cls-3" transform="translate(241.9 145.1)"/>
                <path id="Path_9036" d="M183.7 117.4c.2 6.7 1.9 13.1 11.4 13.4s12.7-7.5 13-14.6" class="cls-6"/>
                <path id="Path_9037" d="M208.3 116.9c-.6.2.8-3-2.6-5.4a4.6 4.6 0 0 1-2-4.2 1.6 1.6 0 0 0-2.6-1.2 17.6 17.6 0 0 1-9.7 3.3 2.6 2.6 0 0 0-2.5 1.8c-.8 2.4-3 4.9-5.4 6.9" class="cls-6"/>
                <path id="Path_9038" d="M188 129.5v4.3l5.7 10.1a2.4 2.4 0 0 0 4.3 0l5.6-10.1v-5.7" class="cls-6"/>
                <path id="Path_9039" d="M198 159.2h-28.4c-.1-11.2.3-13.4 2.6-17.4s12.1-7.6 15.8-8.1" class="cls-4"/>
                <path id="Path_9040" d="M203.6 133.7a37.3 37.3 0 0 1 7.1 1.8" class="cls-6"/>
                <path id="Line_1567" d="M0 0L0 11.3" class="cls-6" transform="translate(181 147.9)"/>
                <path id="Path_9041" d="M178.1 136.6v-24.5a19.4 19.4 0 0 1 2.6-10.4c4.8-7.4 12.6-7.9 17.3-7.6 2.8.2 8.1 1.2 8.5 8.5 0 0 7.3-1.6 7.1 7.1v22.7" class="cls-6"/>
                <path id="Line_1568" d="M0 0L0 14.1" class="cls-6" transform="translate(196.5 145.1)"/>
                <path id="Path_9042" d="M193.7 117.4a2.1 2.1 0 1 1-2.1-2.1 2.1 2.1 0 0 1 2.1 2.1" class="cls-7"/>
                <path id="Path_9043" d="M202.2 117.4a2.1 2.1 0 1 1-2.1-2.1 2.1 2.1 0 0 1 2.1 2.1" class="cls-7"/>
                <path id="Path_9044" d="M196.7 108.4s-5.7 2.1-11-.4" class="cls-6"/>
                <path id="Path_9045" d="M181.5 119.2a13.4 13.4 0 0 0 3.7-2.7" class="cls-6"/>
                <circle id="Ellipse_119" cx="2.1" cy="2.1" r="2.1" class="cls-3" transform="translate(186.6 149.3)"/>
                <path id="Path_9046" d="M187.8 101.6a21.2 21.2 0 0 0 8.1 2" class="cls-4"/>
                <path id="Path_9047" d="M20.3 118a5.7 5.7 0 0 0 11.4 0c0-3.1-2.6-5.2-5.7-5.7s-5.7-2.5-5.7-5.7a5.7 5.7 0 0 1 11.4 0" class="cls-8"/>
                <path id="Line_1569" d="M0 0L0 32.9" class="cls-8" transform="translate(25.3 95.5)"/>
                <path id="Path_9048" d="M9 128.9a24 24 0 0 1 28.6-38" class="cls-3"/>
                <path id="Path_9049" d="M30.4 94.4l-.5-1.5 7.1-2.1-2.6-6.9 1.4-.6 3.2 8.5z" class="cls-9"/>
                <path id="Path_9050" d="M43 95a24 24 0 0 1-28.5 38" class="cls-3"/>
                <path id="Path_9051" d="M21.7 129.5l.4 1.5-7.1 2.1 2.7 6.9-1.4.5-3.3-8.4z" class="cls-9"/>
                <path id="Path_9052" d="M51 40.4a25 25 0 1 1-25-25 25 25 0 0 1 25 25z" class="cls-3"/>
                <path id="Path_9053" d="M36.9 51.4L26 40.4V29.5" class="cls-4"/>
                <path id="Line_1570" d="M0 0L0 3.1" class="cls-4" transform="translate(26 20.1)"/>
                <path id="Line_1571" d="M3.1 0L0 0" class="cls-4" transform="translate(43.2 40.4)"/>
                <path id="Line_1572" d="M0 3.1L0 0" class="cls-4" transform="translate(26 57.6)"/>
                <path id="Line_1573" d="M0 0L3.1 0" class="cls-4" transform="translate(5.7 40.4)"/>
                <path id="Path_9054" d="M195.2 14.1a21.1 21.1 0 1 0 8.1-9.7" class="cls-6"/>
                <path id="Path_9055" d="M200.9 6.1a21.2 21.2 0 0 0-4.6 5.6" class="cls-6"/>
                <path id="Path_9056" fill="none" stroke="#ff6138" stroke-miterlimit="10" stroke-width="2px" d="M228.7 31.9a17 17 0 1 1 2.1-4.1"/>
                <path id="Path_9057" d="M233.1 31.9l16 16a5.5 5.5 0 0 1-7.7 7.7l-15.8-15.7" class="cls-6"/>
                <path id="Line_1574" d="M5.5 0L0 5.6" class="cls-6" transform="translate(239.5 46)"/>
                <path id="Line_1575" d="M5.4 0L0 5.7" class="cls-6" transform="translate(236.6 43)"/>
                <path id="Line_1576" d="M0 0L87.3 0" class="cls-8" transform="translate(372.9 78.6)"/>
                <path id="Path_9058" d="M460.2 115V69.1a1.8 1.8 0 0 0-1.8-1.8h-83.7a1.8 1.8 0 0 0-1.8 1.8v59.5a1.8 1.8 0 0 0 1.8 1.8h66.1" class="cls-8"/>
                <path id="Line_1577" d="M0 0L4.1 0" class="cls-11" transform="translate(376.9 73)"/>
                <path id="Line_1578" d="M0 0L4.1 0" class="cls-11" transform="translate(383.4 73)"/>
                <path id="Line_1579" d="M0 0L4 0" class="cls-11" transform="translate(389.9 73)"/>
                <path id="Path_9059" d="M408.5 100.4v21.1h-29.1V82.7h29.1V94" class="cls-8"/>
                <path id="Line_1580" d="M0 0L24.2 0" class="cls-3" transform="translate(381.8 89.9)"/>
                <path id="Rectangle_9514" d="M0 0H29.1V6.47H0z" class="cls-3" transform="translate(424.6 88.3)"/>
                <path id="Path_9060" d="M381.8 97.2h32.3v-5.7h4.9" class="cls-3"/>
                <path id="Line_1581" d="M0 0L24.2 0" class="cls-3" transform="translate(381.8 104.5)"/>
                <path id="Line_1582" d="M0 0L24.2 0" class="cls-3" transform="translate(381.8 111.8)"/>
                <path id="Path_9061" d="M416.7 87.9l3.3 3.2-3.3 3.3" class="cls-8"/>
                <path id="Path_9062" d="M442.6 97.6l-3.2 3.2-3.3-3.2" class="cls-8"/>
                <path id="Path_9063" d="M431.9 110.9h-7.3v-6.4h29.1v2.4" class="cls-3"/>
                <path id="Path_9064" d="M450.4 110.1a2.1 2.1 0 0 1 3 .5l2.9 4c2.9 4 3.4 7.1 4.2 8.3l1.2 1.7" class="cls-8"/>
                <path id="Path_9065" d="M446.7 111a2.1 2.1 0 0 1 3 .5l.9 1.3" class="cls-8"/>
                <path id="Path_9066" d="M442.9 112a2.1 2.1 0 0 1 3 .5l.7 1" class="cls-8"/>
                <path id="Path_9067" d="M451.9 131.6l-1.2-1.7s-6.2-.8-7.5-2.6l-3.2-4.4" class="cls-8"/>
                <path id="Path_9068" fill="none" stroke="#869095" stroke-linecap="round" stroke-linejoin="round" stroke-width="2px" d="M443.5 121.8l-8.3-11.7a2.1 2.1 0 0 1 .3-2.8 2 2 0 0 1 3 .4l4.7 6.6"/>
            </g>
        </g>
    </g>
</svg>
