<svg xmlns="http://www.w3.org/2000/svg" id="graphic-wipro-industry-healthcare" width="700" height="484.67" viewBox="0 0 700 484.67">
    <defs>
        <clipPath id="clip-path">
            <path id="Rectangle_9290" fill="none" d="M0 0H700V401.905H0z"/>
        </clipPath>
        <style>
            .cls-10,.cls-12,.cls-14,.cls-17,.cls-18,.cls-5,.cls-6,.cls-7,.cls-8,.cls-9{fill:none}.cls-10,.cls-14,.cls-18,.cls-8,.cls-9{stroke:#ff6138}.cls-14,.cls-17,.cls-18{stroke-miterlimit:10}.cls-12,.cls-17,.cls-5,.cls-6,.cls-7{stroke:#879196}.cls-10,.cls-12,.cls-5,.cls-6,.cls-7,.cls-8,.cls-9{stroke-linejoin:round}.cls-10,.cls-12,.cls-14,.cls-17,.cls-18,.cls-5,.cls-6,.cls-7,.cls-8,.cls-9{stroke-width:1.816px}.cls-14{stroke-dasharray:4 6}.cls-16{fill:#fff}
        </style>
    </defs>
    <g id="graphic-wipro-industry-healthcare-2" transform="translate(350 200.953)">
        <g id="graphic-wipro-industry-healthcare-3" clip-path="url(#clip-path)" transform="translate(-350 -200.953)">
            <path id="Path_8404" fill="none" stroke="#ff6138" stroke-miterlimit="10" stroke-width="1.816px" d="M637 35.781a14.981 14.981 0 1 1 14.981 14.981A14.981 14.981 0 0 1 637 35.781" transform="translate(-58.66 -1.915)"/>
            <path id="Path_8405" fill="none" stroke="#ff6138" stroke-miterlimit="10" stroke-width="1.816px" d="M624.5 81.137h52.568a27.419 27.419 0 0 0-12.8-23.424A25.421 25.421 0 0 0 650.83 53.9c-14.53 0-26.33 12.257-26.33 27.237z" transform="translate(-57.509 -4.964)"/>
            <rect id="Rectangle_9268" width="15.344" height="35.336" class="cls-5" rx="3.632" transform="translate(639.442 43.943)"/>
            <rect id="Rectangle_9269" width="15.344" height="35.336" class="cls-5" rx="3.632" transform="translate(639.442 85.435)"/>
            <path id="Path_8406" d="M647.592 120.844h-37.134a4.358 4.358 0 0 1-4.358-4.268V5.267A4.358 4.358 0 0 1 610.458 1h95.785a4.358 4.358 0 0 1 4.357 4.268v27.963h-15.343V39.4" class="cls-6" transform="translate(-55.815 -.092)"/>
            <path id="Line_1055" d="M18.431 0L0 0" class="cls-6" transform="translate(596.407 120.752)"/>
            <path id="Line_1056" d="M12.257 0L0 0" class="cls-7" transform="translate(619.468 120.752)"/>
            <path id="Line_1057" d="M0 0L53.839 0" class="cls-7" transform="translate(567.173 88.521)"/>
            <path id="Line_1058" d="M0 0L53.839 0" class="cls-7" transform="translate(567.173 97.691)"/>
            <path id="Line_1059" d="M0 0L131.92 0" class="cls-8" transform="translate(242.14 95.785)"/>
            <path id="Line_1060" d="M0 0L65.642 0" class="cls-9" transform="translate(391.946 95.785)"/>
            <path id="Line_1061" d="M0 0L131.92 0" class="cls-8" transform="translate(207.367 55.473)"/>
            <path id="Line_1062" d="M0 0L65.642 0" class="cls-9" transform="translate(347.821 55.473)"/>
            <path id="Line_1063" d="M0 0L65.733 0" class="cls-9" transform="translate(231.427 135.46)"/>
            <path id="Line_1064" d="M0 0L65.642 0" class="cls-9" transform="translate(305.058 135.46)"/>
            <path id="Line_1065" d="M0 0L158.521 0" class="cls-8" transform="translate(221.44 115.668)"/>
            <path id="Line_1066" d="M0 0L78.988 0" class="cls-10" transform="translate(388.041 115.668)"/>
            <path id="Line_1067" d="M0 0L78.898 0" class="cls-10" transform="translate(343.917 15.798)"/>
            <path id="Line_1068" d="M0 0L78.898 0" class="cls-10" transform="translate(275.733 35.681)"/>
            <path id="Line_1069" d="M0 0L13.982 0" class="cls-8" transform="translate(362.62 35.681)"/>
            <path id="Line_1070" d="M0 0L65.733 0" class="cls-9" transform="translate(231.427 75.357)"/>
            <path id="Line_1071" d="M0 0L78.988 0" class="cls-10" transform="translate(307.782 75.357)"/>
            <path id="Line_1072" d="M0 0L13.891 0" class="cls-8" transform="translate(394.76 75.357)"/>
            <path id="Path_8407" d="M243.948 64.1A109.676 109.676 0 0 0 204 92.881" class="cls-6" transform="translate(-18.786 -5.903)"/>
            <path id="Path_8408" fill="none" stroke="#879196" stroke-linejoin="round" stroke-width="1.816px" d="M390.91 119.083A109.585 109.585 0 0 0 258.9 59.706" transform="translate(-23.842 -5.05)"/>
            <path id="Path_8409" d="M546.4 316.949h58.924a47.575 47.575 0 1 0 0-95.149 47.484 47.484 0 0 0-33.411 13.709" class="cls-7" transform="translate(-50.317 -20.425)"/>
            <path id="Line_1073" d="M0 0L108.042 0" class="cls-7" transform="translate(86.07 296.524)"/>
            <path id="Line_1074" d="M0 0L108.042 0" class="cls-7" transform="translate(450.143 296.524)"/>
            <path id="Path_8410" d="M78.243 315.66a53.93 53.93 0 1 1 14.345-105.954" class="cls-12" transform="translate(-2.251 -19.136)"/>
            <path id="Path_8411" d="M185.28 104.7a109.13 109.13 0 0 0-14.254 26.874A82.166 82.166 0 0 0 71.7 199.4" class="cls-5" transform="translate(-6.603 -9.642)"/>
            <path id="Path_8412" fill="none" stroke="#879196" stroke-linejoin="round" stroke-width="1.816px" d="M579.145 214.113a45.155 45.155 0 0 0-69.727-45.213A72.542 72.542 0 0 0 404.1 124.865" transform="translate(-37.213 -10.65)"/>
            <path id="Path_8413" d="M391.2 133.5a72.451 72.451 0 0 1 118.3 39.131" class="cls-12" transform="translate(-36.025 -10.656)"/>
            <path id="Path_8414" d="M205.28 364.322H22.79A21.881 21.881 0 0 1 1 342.532V136.89a21.881 21.881 0 0 1 21.79-21.79h79.533" class="cls-14" transform="translate(-.092 -10.599)"/>
            <path id="Path_8415" d="M501 358.007h224.254a20.065 20.065 0 0 0 19.974-19.974V89.174c0-10.986-6.446-19.974-14.254-19.974H716.72" class="cls-14" transform="translate(-46.136 -6.373)"/>
            <path id="Path_8416" fill="#ff6138" d="M187.441 322.77A36.77 36.77 0 1 1 150.67 286a36.77 36.77 0 0 1 36.77 36.77" transform="translate(-10.489 -26.337)"/>
            <path id="Path_8417" d="M170.589 313.759l-.636-1.09-17.523 9.9-15.616-8.716 15.616-8.716 17.523 9.9.636-1.089-.636-1.09.636 1.09.636-1.09-18.158-10.169a1.271 1.271 0 0 0-1.271 0l-18.158 10.169a1.271 1.271 0 0 0 0 2.179L151.8 325.2a1.271 1.271 0 0 0 1.271 0l18.158-10.169a1.271 1.271 0 0 0 0-2.179l-.636 1.09" class="cls-16" transform="translate(-12.25 -27.858)"/>
            <path id="Path_8418" d="M172.429 314.772h-1.271V335.2l-15.616 8.807v-18.34l17.523-9.805-.636-1.09-.636-1.09-18.158 10.169a1.271 1.271 0 0 0-.636 1.09V346.1a1.271 1.271 0 0 0 1.907 1.09l18.158-10.169a1.271 1.271 0 0 0 .636-1.09v-21.159a1.271 1.271 0 0 0-1.907-1.09l.636 1.09" class="cls-16" transform="translate(-14.089 -28.871)"/>
            <path id="Path_8419" d="M152.439 324.95h-1.271v18.975l-15.616-8.807V316.96l16.342 9.17.636-1.09.636-1.089-18.158-10.169a1.271 1.271 0 0 0-1.907 1.09v21.154a1.271 1.271 0 0 0 .636 1.089l18.158 10.169a1.271 1.271 0 0 0 1.905-1.084v-21.25a1.271 1.271 0 0 0-.636-1.09l-.636 1.09" class="cls-16" transform="translate(-12.257 -28.88)"/>
            <path id="Rectangle_9270" d="M0 0H222.802V198.333H0z" class="cls-17" transform="translate(217.536 202.646)"/>
            <path id="Rectangle_9271" d="M0 0H48.936V70.645H0z" class="cls-17" transform="translate(304.514 330.389)"/>
            <path id="Rectangle_9272" d="M0 0H13.619V29.888H0z" class="cls-18" transform="translate(236.602 267.834)"/>
            <path id="Rectangle_9273" d="M0 0H13.619V29.888H0z" class="cls-17" transform="translate(266.472 267.834)"/>
            <path id="Rectangle_9274" d="M0 0H13.619V29.888H0z" class="cls-18" transform="translate(236.602 221.712)"/>
            <path id="Rectangle_9275" d="M0 0H13.619V29.888H0z" class="cls-17" transform="translate(266.472 221.712)"/>
            <path id="Rectangle_9276" d="M0 0H13.619V29.888H0z" class="cls-18" transform="translate(236.602 311.323)"/>
            <path id="Rectangle_9277" d="M0 0H13.619V29.888H0z" class="cls-17" transform="translate(266.472 311.323)"/>
            <path id="Rectangle_9278" d="M0 0H13.619V29.888H0z" class="cls-18" transform="translate(236.602 357.536)"/>
            <path id="Rectangle_9279" d="M0 0H13.619V29.888H0z" class="cls-17" transform="translate(266.472 357.536)"/>
            <path id="Rectangle_9280" d="M0 0H13.619V29.888H0z" class="cls-17" transform="translate(377.873 267.834)"/>
            <path id="Rectangle_9281" d="M0 0H13.619V29.888H0z" class="cls-18" transform="translate(407.743 267.834)"/>
            <path id="Rectangle_9282" d="M0 0H13.619V29.888H0z" class="cls-17" transform="translate(377.873 221.712)"/>
            <path id="Rectangle_9283" d="M0 0H13.619V29.888H0z" class="cls-18" transform="translate(407.743 221.712)"/>
            <path id="Rectangle_9284" d="M0 0H13.619V29.888H0z" class="cls-17" transform="translate(377.873 311.323)"/>
            <path id="Rectangle_9285" d="M0 0H13.619V29.888H0z" class="cls-18" transform="translate(407.743 311.323)"/>
            <path id="Rectangle_9286" d="M0 0H13.619V29.888H0z" class="cls-17" transform="translate(377.873 357.536)"/>
            <path id="Rectangle_9287" d="M0 0H13.619V29.888H0z" class="cls-18" transform="translate(407.743 357.536)"/>
            <path id="Path_8420" d="M335.4 258.123a24.423 24.423 0 1 0 24.423-24.423 24.423 24.423 0 0 0-24.423 24.423z" class="cls-18" transform="translate(-30.886 -21.521)"/>
            <path id="Path_8421" fill="none" stroke="#879196" stroke-miterlimit="10" stroke-width="1.816px" d="M251.6 222.55V205.3h201.1v17.25" transform="translate(-23.169 -18.906)"/>
            <path id="Path_8422" fill="none" stroke="#879196" stroke-miterlimit="10" stroke-width="1.816px" d="M281.5 203.919V190.3h146.719v13.619" transform="translate(-25.923 -17.524)"/>
            <path id="Line_1075" d="M0 0L0 59.831" class="cls-18" transform="translate(328.936 341.193)"/>
            <path id="Path_8423" fill="none" stroke="#879196" stroke-miterlimit="10" stroke-width="1.816px" d="M362.3 247.2v13.528h10.895" transform="translate(-33.364 -22.764)"/>
            <path id="Rectangle_9288" d="M0 0H48.936V13.582H0z" class="cls-17" transform="translate(304.514 273.281)"/>
            <path id="Rectangle_9289" d="M0 0H48.936V13.582H0z" class="cls-17" transform="translate(304.514 300.428)"/>
        </g>
    </g>
</svg>
