<svg xmlns="http://www.w3.org/2000/svg" id="graphic-cog-healthcare-secondary" width="676" height="432.038" viewBox="0 0 676 432.038">
    <defs>
        <clipPath id="clip-path">
            <path id="Rectangle_7120" fill="none" d="M0 0H676V432.038H0z"/>
        </clipPath>
        <style>
            .cls-10,.cls-11,.cls-13,.cls-16,.cls-17,.cls-39,.cls-42,.cls-43,.cls-47,.cls-9{fill:none}.cls-39,.cls-47{stroke:#879196}.cls-10,.cls-11,.cls-13,.cls-47,.cls-9{stroke-miterlimit:10}.cls-8{fill:#879195}.cls-11,.cls-9{stroke:#879195}.cls-10,.cls-42,.cls-43,.cls-9{stroke-width:2.001px}.cls-10,.cls-13,.cls-16,.cls-17,.cls-42{stroke:#527fff}.cls-11,.cls-13,.cls-16,.cls-17,.cls-39,.cls-47{stroke-width:2.001px}.cls-16,.cls-17,.cls-39,.cls-42,.cls-43{stroke-linejoin:round}.cls-43{stroke:#869196}
        </style>
    </defs>
    <g id="graphic-cog-healthcare-secondary-2" transform="translate(338 216.019)">
        <g id="Group_4160" clip-path="url(#clip-path)" transform="translate(-338 -216.019)">
            <path id="Path_7071" fill="none" stroke="#879196" stroke-miterlimit="10" stroke-width="2.001px" d="M206.933 346.147A136.839 136.839 0 0 1 99.2 187" transform="translate(.029 .055)"/>
            <path id="Path_7072" fill="#879196" d="M106.2 195l-1.7 1.1-5.4-8.3-7.8 6-1.2-1.6 9.5-7.3z" transform="translate(.027 .056)"/>
            <path id="Path_7073" fill="none" stroke="#879196" stroke-miterlimit="10" stroke-width="2.001px" d="M312.5 99.7a137.035 137.035 0 0 1 57.116 93.528" transform="translate(.091 .029)"/>
            <path id="Path_7074" fill="none" stroke="#879196" stroke-miterlimit="10" stroke-width="2.001px" d="M193.2 81a137.439 137.439 0 0 1 97.228 6.1" transform="translate(.057 .022)"/>
            <path id="Path_7075" fill="none" stroke="#879196" stroke-miterlimit="10" stroke-width="2.001px" d="M330.5 307.527a137.473 137.473 0 0 0 39.514-89.027" transform="translate(.097 .065)"/>
            <path id="Rectangle_7102" d="M0 0H3.501V3.471H0z" class="cls-8" transform="translate(0 75.522)"/>
            <path id="Rectangle_7103" d="M0 0H3.501V3.471H0z" class="cls-8" transform="translate(0 87.726)"/>
            <path id="Rectangle_7104" d="M0 0H3.501V3.471H0z" class="cls-8" transform="translate(0 99.83)"/>
            <path id="Rectangle_7105" d="M0 0H3.501V3.471H0z" class="cls-8" transform="translate(0 111.933)"/>
            <path id="Rectangle_7106" d="M0 0H3.501V3.471H0z" class="cls-8" transform="translate(0 124.137)"/>
            <path id="Rectangle_7107" d="M0 0H3.501V3.471H0z" class="cls-8" transform="translate(0 136.24)"/>
            <path id="Line_2499" d="M0 0L41.212 0" class="cls-9" transform="translate(10.503 77.123)"/>
            <path id="Line_2500" d="M0 0L30.809 0" class="cls-9" transform="translate(57.617 77.123)"/>
            <path id="Line_2501" d="M0 0L39.912 0" class="cls-10" transform="translate(31.209 89.326)"/>
            <path id="Line_2502" d="M0 0L12.104 0" class="cls-9" transform="translate(20.806 101.53)"/>
            <path id="Line_2503" d="M0 0L67.72 0" class="cls-11" transform="translate(38.111 101.53)"/>
            <path id="Line_2504" d="M0 0L18.706 0" class="cls-11" transform="translate(76.323 89.326)"/>
            <path id="Line_2505" d="M0 0L39.912 0" class="cls-9" transform="translate(31.209 113.634)"/>
            <path id="Line_2506" d="M0 0L12.104 0" class="cls-9" transform="translate(20.806 125.837)"/>
            <path id="Line_2507" fill="none" stroke="#879195" stroke-miterlimit="10" stroke-width="2.001px" d="M0 0L12.204 0" transform="translate(38.111 125.837)"/>
            <path id="Line_2508" d="M0 0L53.716 0" class="cls-9" transform="translate(55.516 125.837)"/>
            <path id="Line_2509" d="M0 0L18.706 0" class="cls-13" transform="translate(76.323 113.634)"/>
            <path id="Line_2510" d="M0 0L36.411 0" class="cls-10" transform="translate(100.63 113.634)"/>
            <path id="Line_2511" d="M0 0L39.912 0" class="cls-9" transform="translate(15.605 137.941)"/>
            <path id="Line_2512" d="M0 0L18.706 0" class="cls-13" transform="translate(60.718 137.941)"/>
            <path id="Line_2513" d="M0 0L36.411 0" class="cls-9" transform="translate(85.025 137.941)"/>
            <path id="Rectangle_7108" d="M0 0H3.501V3.471H0z" class="cls-8" transform="translate(0 148.344)"/>
            <path id="Rectangle_7109" d="M0 0H3.501V3.471H0z" class="cls-8" transform="translate(0 160.548)"/>
            <path id="Line_2514" d="M0 0L12.104 0" class="cls-9" transform="translate(20.806 150.144)"/>
            <path id="Line_2515" d="M0 0L67.72 0" class="cls-13" transform="translate(38.111 150.144)"/>
            <path id="Line_2516" d="M0 0L39.912 0" class="cls-9" transform="translate(31.209 162.148)"/>
            <path id="Line_2517" d="M0 0L18.706 0" class="cls-13" transform="translate(76.323 162.148)"/>
            <path id="Line_2518" d="M0 0L36.411 0" class="cls-9" transform="translate(100.63 162.148)"/>
            <path id="Path_7076" fill="none" stroke="#527fff" stroke-linejoin="round" stroke-width="2.001px" d="M218.921 180.613c-3.2-1.6-6.8-5.1-7.4-12.6a14.306 14.306 0 0 0-7-11.2c-5-3.2-11-4.6-16.8-5.7s-11.6-2-17.405-2.7-10.5-1.5-15.905-2.4c-.1 1.1 2.7 7.9 5.3 10.805s5.9 5.9 8.9 7.3c-5.6-.4-11.1-2-16.5-3.5 1.9 9.9 18.306 18.2 23.708 20.007-.5.8-13.706-1.3-14.405-1 .7 6.7 13 12.905 19.406 14.4" transform="translate(.045 .042)"/>
            <path id="Path_7077" fill="none" stroke="#527fff" stroke-linejoin="round" stroke-width="2.001px" d="M213.1 205.3c2.7-.4 7.3-3.1 7.5-3.3" transform="translate(.064 .059)"/>
            <path id="Line_2519" d="M1.6 0L0 20.106" class="cls-16" transform="translate(233.469 245.273)"/>
            <path id="Line_2520" d="M0.7 0L0 12.104" class="cls-17" transform="translate(235.27 222.666)"/>
            <path id="Line_2521" d="M2.501 0L0 42.012" class="cls-17" transform="translate(236.87 164.949)"/>
            <path id="Line_2522" d="M2.401 40.512L0 0" class="cls-17" transform="translate(223.366 165.949)"/>
            <path id="Line_2523" d="M1.4 12.504L0 0" class="cls-17" transform="translate(226.567 223.366)"/>
            <path id="Line_2524" d="M1.1 17.905L0 0" class="cls-16" transform="translate(228.067 246.473)"/>
            <path id="Path_7078" fill="none" stroke="#527fff" stroke-linejoin="round" stroke-width="2.001px" d="M243.107 150.2a12.1 12.1 0 1 0-12.1 12.1 12.1 12.1 0 0 0 12.1-12.1z" transform="translate(.065 .041)"/>
            <path id="Path_7079" fill="none" stroke="#527fff" stroke-linejoin="round" stroke-width="2.001px" d="M193 189.1a18.106 18.106 0 0 0-2.9 4.8 16.7 16.7 0 0 0-.4 11.4" transform="translate(.056 .055)"/>
            <path id="Path_7080" fill="none" stroke="#527fff" stroke-linejoin="round" stroke-width="2.001px" d="M204.1 262.322c2.2 3 6 5.4 11.1 6.8s23.105 5.7 23.706 11.8c.4 3.8-2.1 7.4-7.1 7.8-7.7.7-7.7 7-2.2 7s18.507-3.5 17.1-15.307-10.6-13.3-25.209-17.7c-5.5-1.7-13.4-5.3-8.7-11.8s20-1.5 32.609-10.4c8.2-5.8 12.1-22.908-4.8-26.51-11.3-2.4-38.513-1.2-41.814-12.7-1.5-5.1 2.9-12 19.307-8.1 2.6.6-4.8-9.2-10.2-9.9a17.4 17.4 0 0 0-11.2 2.5" transform="translate(.057 .054)"/>
            <path id="Path_7081" fill="none" stroke="#527fff" stroke-linejoin="round" stroke-width="2.001px" d="M203.7 246.4a13.889 13.889 0 0 0-2 6 15.634 15.634 0 0 0 .3 5.1" transform="translate(.06 .072)"/>
            <path id="Path_7082" fill="none" stroke="#527fff" stroke-linejoin="round" stroke-width="2.001px" d="M192.4 210.4a17.042 17.042 0 0 0 6.9 5.3c8.2 3.5 19.206 4.4 32.508 6.2 4.3.6 12.1 1.2 11.006 7.3s-12.205 8.1-22.007 9.2c-3.9.4-10.6 1.4-14.905 5.5" transform="translate(.056 .063)"/>
            <path id="Path_7083" fill="none" stroke="#527fff" stroke-linejoin="round" stroke-width="2.001px" d="M215.4 239.206c-5-4.8-7.7-13.905-3-19.906" transform="translate(.063 .064)"/>
            <path id="Path_7084" fill="none" stroke="#527fff" stroke-linejoin="round" stroke-width="2.001px" d="M230.9 265.907c3-1.1 6.3-2.1 9.9-3.2 5.5-1.7 13.405-5.3 8.7-11.8-3-4.2-10.2-3.7-18.3-5" transform="translate(.069 .074)"/>
            <path id="Path_7085" fill="none" stroke="#527fff" stroke-linejoin="round" stroke-width="2.001px" d="M225.8 293.606c-6-1.1-11.2-5.5-10.205-13.2a13.5 13.5 0 0 1 5.5-9.7" transform="translate(.063 .081)"/>
            <path id="Path_7086" fill="none" stroke="#527fff" stroke-linejoin="round" stroke-width="2px" d="M231.2 274.2c-4.2 1.8-7.6 4.1-7.9 6.7s2.9 7.4 7.9 7.9" transform="translate(.065 .081)"/>
            <path id="Path_7087" fill="none" stroke="#527fff" stroke-linejoin="round" stroke-width="2.001px" d="M260.7 255.3c-.4 6.6-5 11.4-13.6 13.8l-5.4 1.5" transform="translate(.072 .076)"/>
            <path id="Path_7088" fill="none" stroke="#527fff" stroke-linejoin="round" stroke-width="2.001px" d="M246.9 239.2c4.9 1.1 10.6 3.6 12.9 9.3" transform="translate(.072 .07)"/>
            <path id="Path_7089" fill="none" stroke="#527fff" stroke-linejoin="round" stroke-width="2.001px" d="M230.6 221.9c-4.3.6-12.1 1.2-11 7.3.7 3.8 5.6 6.1 11.8 7.6" transform="translate(.065 .066)"/>
            <path id="Path_7090" fill="none" stroke="#527fff" stroke-linejoin="round" stroke-width="2px" d="M272.606 205.2a16.812 16.812 0 0 1-9.6 10.5 59.2 59.2 0 0 1-13.1 3.6" transform="translate(.074 .06)"/>
            <path id="Path_7091" fill="none" stroke="#527fff" stroke-linejoin="round" stroke-width="2.001px" d="M231.3 212.807c12.7-1.2 29.808-2.7 32.308-11.5 1.5-5.1-2.9-12-19.3-8.1-2.6.6 4.8-9.2 10.2-9.9a16.9 16.9 0 0 1 17.8 10.5 14.981 14.981 0 0 1 .9 2.9" transform="translate(.069 .055)"/>
            <path id="Path_7092" fill="none" stroke="#527fff" stroke-linejoin="round" stroke-width="2.001px" d="M243 180.613c3.2-1.6 6.8-5.1 7.4-12.6a14.3 14.3 0 0 1 7-11.2c5-3.2 11-4.6 16.8-5.7s11.6-2 17.406-2.7 10.5-1.5 15.905-2.4c.1 1.1-2.7 7.9-5.3 10.805s-5.9 5.9-8.9 7.3c5.6-.4 11.1-2 16.506-3.5-1.9 9.9-18.3 18.2-23.707 20.007.5.8 13.7-1.3 14.405-1-.7 6.7-13.006 12.905-19.408 14.4" transform="translate(.072 .042)"/>
            <path id="Path_7093" fill="none" stroke="#527fff" stroke-linejoin="round" stroke-width="2px" d="M248.8 205.3c-2.7-.4-7.3-3.1-7.5-3.3" transform="translate(.071 .059)"/>
            <path id="Path_7094" fill="none" stroke="#527fff" stroke-linejoin="round" stroke-width="2.001px" d="M180.3 158.2s1.8 11.8 18.505 15.3" transform="translate(.053 .047)"/>
            <path id="Path_7095" fill="none" stroke="#527fff" stroke-linejoin="round" stroke-width="2px" d="M283.1 158.2s-1.8 11.8-18.5 15.3" transform="translate(.078 .047)"/>
            <path id="Path_7096" fill="none" stroke="#879196" stroke-linejoin="round" stroke-width="2.001px" d="M571.41 195.311a31.588 31.588 0 0 1-.2-3.8c0-10.9 7.4-23.508 18.006-28.009 13.6-5.8 26.007-1.4 34.21 6.8a36.883 36.883 0 0 1 8.4 13.8c6.9-9.4 22.4-6.4 23.608 10.5v.2c7 1.2 19.5 6.2 19.5 21.806 0 20.106-20 21.807-20 21.807h-77.928c-11.6 0-21.5-8.9-22.007-20.507v-1.4c0-13.305 8.706-19.2 16.5-21.206z" transform="translate(.164 .047)"/>
            <path id="Path_7097" fill="none" stroke="#879196" stroke-linejoin="round" stroke-width="2.001px" d="M300.8 116.126V26.8h86.424" transform="translate(.09 .008)"/>
            <path id="Line_2525" fill="none" stroke="#879196" stroke-linejoin="round" stroke-width="2.001px" d="M0 0L5.802 0" transform="translate(395.917 26.808)"/>
            <path id="Line_2526" d="M0 0L11.503 0" class="cls-39" transform="translate(408.921 26.808)"/>
            <path id="Line_2527" fill="none" stroke="#527fff" stroke-dasharray="4 6" stroke-miterlimit="10" stroke-width="2.001px" d="M0 0L196.458 0" transform="translate(349.904 205.361)"/>
            <path id="Path_7098" fill="#527fff" d="M539.6 213.505l-1.4-1.5 7.208-6.705-7.208-6.7 1.4-1.5 8.8 8.2z" transform="translate(.158 .058)"/>
            <path id="Rectangle_7110" d="M0 0H19.406V19.446H0z" class="cls-42" transform="translate(477.141 213.263)"/>
            <path id="Rectangle_7111" d="M0 0H19.406V19.446H0z" class="cls-42" transform="translate(447.933 262.178)"/>
            <path id="Rectangle_7112" d="M0 0H19.406V19.446H0z" class="cls-42" transform="translate(431.728 178.353)"/>
            <path id="Rectangle_7113" d="M0 0H19.406V19.446H0z" class="cls-42" transform="translate(435.029 226.567)"/>
            <path id="Rectangle_7114" d="M0 0H19.406V19.446H0z" class="cls-43" transform="translate(386.414 165.049)"/>
            <path id="Rectangle_7115" d="M0 0H19.406V19.446H0z" class="cls-42" transform="translate(457.635 155.246)"/>
            <path id="Rectangle_7116" d="M0 0H19.406V19.446H0z" class="cls-43" transform="translate(399.318 213.263)"/>
            <path id="Rectangle_7117" d="M0 0H19.406V19.446H0z" class="cls-43" transform="translate(386.414 245.973)"/>
            <path id="Rectangle_7118" d="M0 0H19.406V19.446H0z" class="cls-42" transform="translate(324.496 142.342)"/>
            <path id="Rectangle_7119" d="M0 0H19.406V19.446H0z" class="cls-43" transform="translate(496.547 135.84)"/>
            <path id="Path_7099" fill="none" stroke="#879196" stroke-linejoin="round" stroke-width="2.001px" d="M307.822 325.3c-12.5 2.3-28.007-2.1-35.311-13.2-7.2 11-21.105 15.5-33.609 13.2l-5.9-.9a2.8 2.8 0 0 0-3.2 2.8v78.63a2.8 2.8 0 0 0 1.4 2.4l40.011 22.408a2.814 2.814 0 0 0 2.7 0l40.013-22.408a2.8 2.8 0 0 0 1.4-2.4v-78.524a2.8 2.8 0 0 0-3.3-2.8z" transform="translate(.068 .092)"/>
            <path id="Path_7100" fill="none" stroke="#527fff" stroke-linejoin="round" stroke-width="2.001px" d="M238.2 402.422V333.7a44.367 44.367 0 0 0 7.2.6 41.711 41.711 0 0 0 27.207-9.7 45.242 45.242 0 0 0 28.51 9.7 46.455 46.455 0 0 0 5.7-.4v68.521l-34.407 19.207z" transform="translate(.07 .097)"/>
            <path id="Line_2528" d="M68.72 21.606L0 0" class="cls-42" transform="translate(238.371 343.902)"/>
            <path id="Line_2529" d="M39.512 12.404L0 0" class="cls-39" transform="translate(238.371 363.708)"/>
            <path id="Line_2530" d="M7.002 2.401L0 0" class="cls-39" transform="translate(281.883 377.212)"/>
            <path id="Line_2531" d="M14.404 4.501L0 0" class="cls-39" transform="translate(292.687 380.813)"/>
            <path id="Path_7101" fill="none" stroke="#879196" stroke-miterlimit="10" stroke-width="2px" d="M441.1 46v1h-4v-1" transform="translate(.13 .014)"/>
            <path id="Line_2532" d="M0 0L46.014 0" class="cls-47" transform="translate(480.242 51.015)"/>
            <path id="Line_2533" d="M0 0L37.011 0" class="cls-47" transform="translate(426.226 51.015)"/>
            <path id="Path_7102" fill="none" stroke="#879196" stroke-miterlimit="10" stroke-width="2px" d="M502.2 17a38.9 38.9 0 0 1 12.9 29.009" transform="translate(.148 .005)"/>
            <path id="Path_7103" fill="none" stroke="#879196" stroke-miterlimit="10" stroke-width="2.001px" d="M437.1 46.012A39.012 39.012 0 0 1 499.82 15" transform="translate(.13 .002)"/>
            <path id="Path_7104" fill="none" stroke="#527fff" stroke-linejoin="round" stroke-width="2px" d="M490.1 3.2a44.859 44.859 0 0 1 9 4.1" transform="translate(.145 .001)"/>
            <path id="Path_7105" fill="none" stroke="#527fff" stroke-linejoin="round" stroke-width="2.001px" d="M436.3 25.007A45.016 45.016 0 0 1 486.117 2.1" transform="translate(.129)"/>
            <path id="Path_7106" fill="none" stroke="#879196" stroke-miterlimit="10" stroke-width="2px" d="M494.1 25.4a30.394 30.394 0 0 1 8 20.606" transform="translate(.147 .007)"/>
            <path id="Path_7107" fill="none" stroke="#879196" stroke-miterlimit="10" stroke-width="2.001px" d="M441.1 46.009A30.508 30.508 0 0 1 491.114 22.5" transform="translate(.132 .005)"/>
            <path id="Path_7108" fill="none" stroke="#879196" stroke-miterlimit="10" stroke-width="2px" d="M515.1 46v1h-13v-1" transform="translate(.149 .014)"/>
            <circle id="Ellipse_217" cx="10.003" cy="10.003" r="10.003" class="cls-47" transform="translate(461.737 36.011)"/>
            <path id="Path_7109" fill="none" stroke="#527fff" stroke-linejoin="round" stroke-width="2px" d="M465.6 46a6 6 0 1 1 6.005 6" transform="translate(.137 .012)"/>
            <path id="Path_7110" fill="none" stroke="#527fff" stroke-linejoin="round" stroke-width="2.001px" d="M475.2 37.009L508.71 7l1.4 1.4-30.01 33.51" transform="translate(.14 .002)"/>
            <path id="Line_2534" d="M0 6.002L10.803 0" class="cls-42" transform="translate(498.147 25.007)"/>
            <path id="Line_2535" d="M0 3.201L13.004 0" class="cls-42" transform="translate(501.248 35.41)"/>
        </g>
    </g>
</svg>
