<svg xmlns="http://www.w3.org/2000/svg" id="graphic-healthcare" width="640" height="367.457" viewBox="0 0 640 367.457">
    <defs>
        <clipPath id="clip-path">
            <path id="Rectangle_6917" fill="none" d="M0 0H640V367.456H0z"/>
        </clipPath>
        <style>
            .cls-11,.cls-13,.cls-16,.cls-17,.cls-18,.cls-4,.cls-5,.cls-7,.cls-8,.cls-9{fill:none}.cls-13,.cls-18,.cls-4,.cls-8,.cls-9{stroke:#527fff}.cls-13,.cls-16,.cls-17,.cls-18,.cls-4{stroke-miterlimit:10}.cls-4{stroke-width:1.66px}.cls-11,.cls-16,.cls-17,.cls-5,.cls-7{stroke:#879196}.cls-11,.cls-5,.cls-7,.cls-8,.cls-9{stroke-linejoin:round}.cls-11,.cls-13,.cls-16,.cls-17,.cls-18,.cls-5,.cls-7,.cls-8,.cls-9{stroke-width:1.66px}.cls-13{stroke-dasharray:4 6}.cls-15{fill:#fff}
        </style>
    </defs>
    <g id="graphic-healthcare-2" transform="translate(320 183.728)">
        <g id="Group_4010" clip-path="url(#clip-path)" transform="translate(-320 -183.728)">
            <path id="Path_6930" fill="none" stroke="#527fff" stroke-miterlimit="10" stroke-width="1.66px" d="M637 34.5a13.7 13.7 0 1 1 13.7 13.7A13.7 13.7 0 0 1 637 34.5" transform="translate(-108.232 -3.534)"/>
            <path id="Path_6931" d="M624.5 78.8h48.062a25.069 25.069 0 0 0-11.7-21.416 23.242 23.242 0 0 0-12.289-3.484c-13.282 0-24.073 11.206-24.073 24.9z" class="cls-4" transform="translate(-106.108 -9.158)"/>
            <rect id="Rectangle_6895" width="14.029" height="32.307" class="cls-5" rx="3.32" transform="translate(584.633 40.176)"/>
            <rect id="Rectangle_6896" width="14.029" height="32.307" class="cls-5" rx="3.32" transform="translate(584.633 78.112)"/>
            <path id="Path_6932" fill="none" stroke="#879196" stroke-linejoin="round" stroke-width="1.66px" d="M644.035 110.572h-33.95a3.985 3.985 0 0 1-3.984-3.9V4.9a3.984 3.984 0 0 1 3.984-3.9h87.575a3.985 3.985 0 0 1 3.984 3.9v25.568h-14.029v5.645" transform="translate(-102.982 -.17)"/>
            <path id="Line_2389" d="M16.851 0L0 0" class="cls-7" transform="translate(545.287 110.402)"/>
            <path id="Line_2390" d="M11.206 0L0 0" class="cls-7" transform="translate(566.371 110.402)"/>
            <path id="Line_2391" d="M0 0L49.224 0" class="cls-5" transform="translate(518.558 80.934)"/>
            <path id="Line_2392" d="M0 0L49.224 0" class="cls-5" transform="translate(518.558 89.318)"/>
            <path id="Line_2393" d="M0 0L120.612 0" class="cls-8" transform="translate(221.385 87.575)"/>
            <path id="Line_2394" d="M0 0L60.016 0" class="cls-8" transform="translate(358.35 87.575)"/>
            <path id="Line_2395" d="M0 0L120.612 0" class="cls-8" transform="translate(189.593 50.719)"/>
            <path id="Line_2396" d="M0 0L60.016 0" class="cls-8" transform="translate(318.008 50.719)"/>
            <path id="Line_2397" d="M0 0L60.099 0" class="cls-8" transform="translate(211.59 123.85)"/>
            <path id="Line_2398" d="M0 0L60.016 0" class="cls-8" transform="translate(278.91 123.85)"/>
            <path id="Line_2399" d="M0 0L144.934 0" class="cls-8" transform="translate(202.459 105.754)"/>
            <path id="Line_2400" d="M0 0L72.218 0" class="cls-9" transform="translate(354.781 105.754)"/>
            <path id="Line_2401" d="M0 0L72.135 0" class="cls-9" transform="translate(314.438 14.444)"/>
            <path id="Line_2402" d="M0 0L72.135 0" class="cls-9" transform="translate(252.099 32.623)"/>
            <path id="Line_2403" d="M0 0L12.783 0" class="cls-9" transform="translate(331.538 32.623)"/>
            <path id="Line_2404" d="M0 0L60.099 0" class="cls-8" transform="translate(211.59 68.898)"/>
            <path id="Line_2405" d="M0 0L72.218 0" class="cls-9" transform="translate(281.401 68.898)"/>
            <path id="Line_2406" d="M0 0L12.7 0" class="cls-8" transform="translate(360.923 68.898)"/>
            <path id="Path_6933" fill="none" stroke="#879196" stroke-linejoin="round" stroke-width="1.66px" d="M240.524 64.1A100.275 100.275 0 0 0 204 90.414" transform="translate(-34.661 -10.891)"/>
            <path id="Path_6934" d="M379.6 113.576a100.192 100.192 0 0 0-120.7-54.288" class="cls-11" transform="translate(-43.989 -9.317)"/>
            <path id="Path_6935" d="M546.4 308.794h53.873a43.5 43.5 0 1 0 0-86.994 43.414 43.414 0 0 0-30.547 12.534" class="cls-7" transform="translate(-92.838 -37.686)"/>
            <path id="Line_2407" d="M0 0L98.781 0" class="cls-5" transform="translate(78.693 271.108)"/>
            <path id="Line_2408" d="M0 0L98.781 0" class="cls-5" transform="translate(411.559 271.108)"/>
            <path id="Path_6936" fill="none" stroke="#879196" stroke-linejoin="round" stroke-width="1.66px" d="M73.632 306.414a49.307 49.307 0 1 1 13.115-96.872" transform="translate(-4.153 -35.307)"/>
            <path id="Path_6937" d="M175.544 104.7a99.776 99.776 0 0 0-13.032 24.571A75.123 75.123 0 0 0 71.7 191.278" class="cls-11" transform="translate(-12.182 -17.789)"/>
            <path id="Path_6938" d="M564.142 205.673a41.285 41.285 0 0 0-63.751-41.339 66.324 66.324 0 0 0-96.291-40.259" class="cls-5" transform="translate(-68.66 -19.65)"/>
            <path id="Path_6939" d="M391.2 131.973a66.241 66.241 0 0 1 108.161 35.777" class="cls-11" transform="translate(-66.469 -19.662)"/>
            <path id="Path_6940" d="M187.77 342.96H20.922A20.005 20.005 0 0 1 1 323.038V135.022A20.005 20.005 0 0 1 20.922 115.1h72.716" class="cls-13" transform="translate(-.17 -19.557)"/>
            <path id="Path_6941" d="M501 333.252h205.032a18.345 18.345 0 0 0 18.262-18.262V87.462c0-10.044-5.894-18.262-13.032-18.262H698.23" class="cls-13" transform="translate(-85.125 -11.758)"/>
            <path id="Path_6942" fill="#527fff" d="M181.137 319.619A33.619 33.619 0 1 1 147.519 286a33.619 33.619 0 0 1 33.619 33.619" transform="translate(-19.353 -48.594)"/>
            <path id="Path_6943" d="M167.369 312.8l-.581-1-16.021 9.048-14.278-7.969 14.278-7.969 16.021 9.048.581-1-.581-1 .581 1 .581-1-16.6-9.3a1.162 1.162 0 0 0-1.162 0l-16.6 9.3a1.162 1.162 0 0 0 0 1.992l16.6 9.3a1.162 1.162 0 0 0 1.162 0l16.6-9.3a1.162 1.162 0 0 0 0-1.992l-.581 1" class="cls-15" transform="translate(-22.602 -51.4)"/>
            <path id="Path_6944" d="M170.764 314.664H169.6v18.677l-14.278 8.052v-16.768l16.021-8.965-.581-1-.581-1-16.6 9.3a1.162 1.162 0 0 0-.581 1v19.34a1.162 1.162 0 0 0 1.743 1l16.6-9.3a1.162 1.162 0 0 0 .581-1v-19.336a1.162 1.162 0 0 0-1.743-1l.581 1" class="cls-15" transform="translate(-25.996 -53.269)"/>
            <path id="Path_6945" d="M150.781 323.978h-1.162v17.349l-14.278-8.052v-16.6l14.942 8.384.581-1 .581-1-16.6-9.3a1.162 1.162 0 0 0-1.743 1V334.1a1.162 1.162 0 0 0 .581 1l16.6 9.3a1.162 1.162 0 0 0 1.743-1v-19.422a1.162 1.162 0 0 0-.581-1l-.581 1" class="cls-15" transform="translate(-22.615 -53.286)"/>
            <path id="Rectangle_6897" d="M0 0H203.704V181.333H0z" class="cls-16" transform="translate(198.89 185.276)"/>
            <path id="Rectangle_6898" d="M0 0H44.742V64.589H0z" class="cls-17" transform="translate(278.412 302.07)"/>
            <path id="Rectangle_6899" d="M0 0H12.451V27.327H0z" class="cls-18" transform="translate(216.322 244.877)"/>
            <path id="Rectangle_6900" d="M0 0H12.451V27.327H0z" class="cls-16" transform="translate(243.632 244.877)"/>
            <path id="Rectangle_6901" d="M0 0H12.451V27.327H0z" class="cls-18" transform="translate(216.322 202.708)"/>
            <path id="Rectangle_6902" d="M0 0H12.451V27.327H0z" class="cls-16" transform="translate(243.632 202.708)"/>
            <path id="Rectangle_6903" d="M0 0H12.451V27.327H0z" class="cls-18" transform="translate(216.322 284.638)"/>
            <path id="Rectangle_6904" d="M0 0H12.451V27.327H0z" class="cls-16" transform="translate(243.632 284.638)"/>
            <path id="Rectangle_6905" d="M0 0H12.451V27.327H0z" class="cls-18" transform="translate(216.322 326.89)"/>
            <path id="Rectangle_6906" d="M0 0H12.451V27.327H0z" class="cls-16" transform="translate(243.632 326.89)"/>
            <path id="Rectangle_6907" d="M0 0H12.451V27.327H0z" class="cls-16" transform="translate(345.484 244.877)"/>
            <path id="Rectangle_6908" d="M0 0H12.451V27.327H0z" class="cls-18" transform="translate(372.794 244.877)"/>
            <path id="Rectangle_6909" d="M0 0H12.451V27.327H0z" class="cls-16" transform="translate(345.484 202.708)"/>
            <path id="Rectangle_6910" d="M0 0H12.451V27.327H0z" class="cls-18" transform="translate(372.794 202.708)"/>
            <path id="Rectangle_6911" d="M0 0H12.451V27.327H0z" class="cls-16" transform="translate(345.484 284.638)"/>
            <path id="Rectangle_6912" d="M0 0H12.451V27.327H0z" class="cls-18" transform="translate(372.794 284.638)"/>
            <path id="Rectangle_6913" d="M0 0H12.451V27.327H0z" class="cls-16" transform="translate(345.484 326.89)"/>
            <path id="Rectangle_6914" d="M0 0H12.451V27.327H0z" class="cls-18" transform="translate(372.794 326.89)"/>
            <path id="Path_6946" d="M335.4 256.029a22.329 22.329 0 1 0 22.329-22.329 22.329 22.329 0 0 0-22.329 22.329z" class="cls-4" transform="translate(-56.988 -39.708)"/>
            <path id="Path_6947" fill="none" stroke="#879196" stroke-miterlimit="10" stroke-width="1.66px" d="M251.6 221.072V205.3h183.865v15.772" transform="translate(-42.749 -34.882)"/>
            <path id="Path_6948" fill="none" stroke="#879196" stroke-miterlimit="10" stroke-width="1.66px" d="M281.5 202.751V190.3h134.143v12.451" transform="translate(-47.829 -32.334)"/>
            <path id="Line_2409" d="M0 0L0 54.703" class="cls-18" transform="translate(300.742 311.948)"/>
            <path id="Path_6949" fill="none" stroke="#879196" stroke-miterlimit="10" stroke-width="1.66px" d="M362.3 247.2v12.368h9.961" transform="translate(-61.558 -42.002)"/>
            <path id="Rectangle_6915" d="M0 0H44.742V12.418H0z" class="cls-17" transform="translate(278.412 249.857)"/>
            <path id="Rectangle_6916" d="M0 0H44.742V12.418H0z" class="cls-17" transform="translate(278.412 274.677)"/>
        </g>
    </g>
</svg>
