<svg xmlns="http://www.w3.org/2000/svg" width="467.8" height="222.25" viewBox="0 0 467.8 222.25">
    <defs>
        <clipPath id="clip-path">
            <path id="Rectangle_8039" fill="none" d="M0 0H467.8V222.25H0z"/>
        </clipPath>
        <style>
            .cls-2,.cls-3,.cls-4,.cls-6,.cls-8{fill:none}.cls-2{stroke:#869196}.cls-2,.cls-3,.cls-4,.cls-6{stroke-linejoin:round}.cls-2,.cls-3,.cls-4,.cls-6,.cls-8{stroke-width:2px}.cls-3{stroke:#527fff}.cls-4,.cls-8{stroke:#879196}.cls-5{clip-path:url(#clip-path)}.cls-6{stroke:#869095}.cls-8{stroke-miterlimit:10}.cls-9{fill:#879196}
        </style>
    </defs>
    <g id="graphic-cog-benefits-1" transform="translate(233.9 111.125)">
        <g id="graphic-cog-benefits-1-2" transform="translate(-233.9 -111.125)">
            <path id="Rectangle_8019" d="M0 0H10.5V10.51H0z" class="cls-2" transform="translate(296.6 98.7)"/>
            <path id="Rectangle_8020" d="M0 0H10.5V10.51H0z" class="cls-2" transform="translate(312.4 125.2)"/>
            <path id="Rectangle_8021" d="M0 0H10.5V10.51H0z" class="cls-2" transform="translate(321.1 79.9)"/>
            <path id="Rectangle_8022" d="M0 0H10.5V10.51H0z" class="cls-3" transform="translate(319.4 105.9)"/>
            <path id="Rectangle_8023" d="M0 0H10.5V10.51H0z" class="cls-2" transform="translate(345.6 72.6)"/>
            <path id="Rectangle_8024" d="M0 0H10.5V10.51H0z" class="cls-3" transform="translate(307.1 67.4)"/>
            <path id="Rectangle_8025" d="M0 0H10.5V10.51H0z" class="cls-2" transform="translate(338.6 98.7)"/>
            <path id="Rectangle_8026" d="M0 0H10.5V10.51H0z" class="cls-2" transform="translate(345.6 116.4)"/>
            <path id="Rectangle_8027" d="M0 0H10.5V10.51H0z" class="cls-3" transform="translate(379.1 60.4)"/>
            <path id="Rectangle_8028" d="M0 0H10.5V10.51H0z" class="cls-2" transform="translate(286.1 56.9)"/>
            <path id="Rectangle_8029" d="M0 0H10.5V10.51H0z" class="cls-2" transform="translate(85.6 98.7)"/>
            <path id="Rectangle_8030" d="M0 0H10.5V10.51H0z" class="cls-2" transform="translate(101.4 125.2)"/>
            <path id="Rectangle_8031" d="M0 0H10.5V10.51H0z" class="cls-2" transform="translate(110.1 79.9)"/>
            <path id="Rectangle_8032" d="M0 0H10.5V10.51H0z" class="cls-3" transform="translate(108.4 105.9)"/>
            <path id="Rectangle_8033" d="M0 0H10.5V10.51H0z" class="cls-2" transform="translate(134.6 72.6)"/>
            <path id="Rectangle_8034" d="M0 0H10.5V10.51H0z" class="cls-3" transform="translate(96.1 67.4)"/>
            <path id="Rectangle_8035" d="M0 0H10.5V10.51H0z" class="cls-2" transform="translate(127.6 98.7)"/>
            <path id="Rectangle_8036" d="M0 0H10.5V10.51H0z" class="cls-2" transform="translate(134.6 116.4)"/>
            <path id="Rectangle_8037" d="M0 0H10.5V10.51H0z" class="cls-3" transform="translate(168.1 60.4)"/>
            <path id="Rectangle_8038" d="M0 0H10.5V10.51H0z" class="cls-2" transform="translate(75.1 56.9)"/>
            <path id="Line_4728" d="M0 0L73 0" class="cls-4" transform="translate(24.4 199.7)"/>
            <path id="Line_4729" d="M0 0L68.2 0" class="cls-4" transform="translate(112.4 199.7)"/>
            <path id="Line_4730" d="M0 0L110 0" class="cls-4" transform="translate(282.4 199.7)"/>
            <path id="Line_4731" d="M0 0L11 0" class="cls-4" transform="translate(403.4 199.7)"/>
            <g id="Group_4332" class="cls-5">
                <path id="Line_4732" d="M0 0L39 0" class="cls-4" transform="translate(427.4 199.7)"/>
            </g>
            <path id="Rectangle_8040" d="M0 0H8.3V8.3H0z" class="cls-3" transform="translate(223.6 37.8)"/>
            <path id="Rectangle_8041" d="M0 0H8.3V8.3H0z" class="cls-4" transform="translate(235.5 37.8)"/>
            <path id="Rectangle_8042" d="M0 0H8.3V8.3H0z" class="cls-4" transform="translate(223.6 49.7)"/>
            <path id="Rectangle_8043" d="M0 0H8.3V8.3H0z" class="cls-3" transform="translate(235.5 49.7)"/>
            <path id="Line_4733" d="M0 33.2L0 0" class="cls-4" transform="translate(210.6 32.6)"/>
            <path id="Line_4734" d="M0 0L56 0" class="cls-4" transform="translate(200.8 32.6)"/>
            <g id="Group_4333" class="cls-5">
                <path id="Path_8868" d="M255.6 65.8a1.2 1.2 0 0 0 1.2-1.1V26.5a1.2 1.2 0 0 0-1.2-1.1H202a1.2 1.2 0 0 0-1.2 1.1v38.2a1.2 1.2 0 0 0 1.2 1.1z" class="cls-4"/>
                <path id="Line_4735" d="M0 0L2.6 0" class="cls-3" transform="translate(203.4 29)"/>
                <path id="Line_4736" d="M0 0L2.6 0" class="cls-6" transform="translate(207.5 29)"/>
                <path id="Line_4737" d="M0 0L2.6 0" class="cls-3" transform="translate(211.7 29)"/>
                <path id="Path_8869" fill="none" stroke="#869196" stroke-miterlimit="10" stroke-width="2px" d="M246.1 148.5c.8.1 2 .2 1.9 1.2s-.1 2-.6 2.1-1.5 4.3-1.9 5.5c-1 2.9-3.8 3.7-6.6 3.6s-4.7-.4-6.1-2.4a14.5 14.5 0 0 1-2-3.7c-.2-.7-.5-1.9-1.3-2.3a1.2 1.2 0 0 0-1 0c-.7.4-1 1.5-1.3 2.3a14.5 14.5 0 0 1-2 3.7c-1.4 2-3.8 2.4-6.1 2.4s-5.5-.7-6.6-3.6c-.4-1.2-.5-5.2-1.9-5.5s-.6-1.6-.6-2.1 1.1-1.1 1.9-1.2a33 33 0 0 1 5.9-.1 51.5 51.5 0 0 1 10.6 1.6h1a51.4 51.4 0 0 1 10.6-1.6 33 33 0 0 1 6.1.1z"/>
                <path id="Path_8870" d="M214.7 137.6s0 4.3-1.3 6.5c-3.9 6.5-7.8 6.5-7.8 6.5" class="cls-2"/>
                <path id="Path_8871" d="M256.3 185l-6.3 11.8 6.5 4.7-10 16.2" class="cls-2"/>
                <path id="Path_8872" d="M205.6 183.3l8 13.4-6.5 4.8 10 16.2" class="cls-2"/>
                <path id="Path_8873" d="M221.4 141.5c11 2.2 19.2-8.6 19.2-8.6 4.7-4.5 1.5 8.8 6.9 12.6s1.6 8.1 2.6 7.8c7.3-1.9 7.4-12.6 6.5-17-3.3-17.9-18.3-20.9-26.8-20.9-15.8-.1-24.8 13.3-25.5 22.2-1.3 17 3.9 13.1 3.9 13.1.2 11.3 6.3 26.8 21.6 27.5 17.1.7 19.8-12.8 20.3-24.8" class="cls-2"/>
                <path id="Path_8874" d="M210.8 119.3a15.5 15.5 0 0 1 2.7-7.3c6.9-9.8 22.5-10.3 30-3.1 1.8 1.7 4.2 5.7 4.5 8.1" class="cls-2"/>
                <path id="Path_8875" d="M218.6 174.2v7.8l9.8 29.2c1.6 2.9 2.7 2.9 4.3 0l9.5-29.2v-7.8" class="cls-2"/>
                <path id="Path_8876" d="M218.6 180.7c-5.9.8-21.1 4.5-25.9 13-3.7 6.4-4.3 9.8-4.2 27.5h85c.1-17.7.2-19.6-4.2-27.5s-21.2-12.2-27.2-13" class="cls-2"/>
                <path id="Path_8877" d="M213.7 135.9a10.8 10.8 0 0 0 7.6 5.5" class="cls-2"/>
                <path id="Path_8878" d="M421.8 83v-7l2-9" class="cls-4"/>
                <path id="Path_8879" d="M423.7 54.2c.1 5.1 1.3 10.2 8.2 10.5s8.9-5.1 9.2-10.2" class="cls-4"/>
                <path id="Path_8880" d="M428.1 46.4a15.5 15.5 0 0 0 11 1.7s1.5 6.6 2.4 6.6 2.1-2.9 1.6-6.9-3-10.1-10.5-10.5c-2.7-.1-2.5-1.9-3.3-1.9s-.1 2.5-.7 2.7-1.7-.9-2.2-.7-.1 1.9-.5 2.2a12.3 12.3 0 0 0-4.2 7.7c-.4 1.9-.1 6.8 1.9 7 .3 0-.3-2.1 1.7-3.7s.7-6.2 2.8-4.2z" class="cls-4"/>
                <path id="Path_8881" d="M425.5 66.6a6.8 6.8 0 0 0 6.9 5.9s6.2 0 6-6" class="cls-4"/>
                <path id="Path_8882" d="M427.8 64v2c-2.7.3-10 1.9-12.1 5.5s-1.9 4.1-1.9 11.5h38c0-7.4.1-8.2-1.9-11.5s-9.8-5.1-13.1-5.5v-2" class="cls-4"/>
                <path id="Path_8883" d="M443.8 83v-7l-3-9" class="cls-4"/>
                <path id="Line_4738" d="M0 0L16 0" class="cls-3" transform="translate(424.8 75)"/>
                <path id="Line_4739" d="M0 0L16 0" class="cls-3" transform="translate(424.8 79)"/>
                <circle id="Ellipse_382" cx="2.4" cy="2.4" r="2.4" class="cls-4" transform="translate(433.3 50.8)"/>
                <circle id="Ellipse_383" cx="2.4" cy="2.4" r="2.4" class="cls-4" transform="translate(426.6 50.8)"/>
                <path id="Line_4740" d="M0 0L1 0" class="cls-4" transform="translate(431.8 53)"/>
                <path id="Path_8884" d="M429.8 39.9c.7 1.3 4.4 2.6 6 2.5" class="cls-4"/>
                <path id="Path_8885" d="M456.8 18.6c-.2 5-1.7 10.6-9.6 10.3s-8.3-4.8-8.4-9.5V13s10.3 2.2 18 0z" class="cls-8"/>
                <path id="Path_8886" d="M442.8 28v4l3.5 6.1a1.7 1.7 0 0 0 3 0l3.5-6.1v-4" class="cls-8"/>
                <path id="Path_8887" d="M446.8 49h19.9c0-7.9.1-8.8-1.8-12.3s-9.5-5.4-12.1-5.7" class="cls-4"/>
                <path id="Path_8888" d="M442.8 31a30.1 30.1 0 0 0-7 2" class="cls-8"/>
                <path id="Line_4741" d="M0 0L0 4" class="cls-3" transform="translate(458.8 43)"/>
                <path id="Path_8889" d="M438.8 20c-2.4-1.5-5.6-9.6.1-15.4 4.1-4.1 12.8-5.7 18.3.6 2.7 3 4.9 10.9-.5 14.8" class="cls-8"/>
                <path id="Path_8890" d="M445.8 18.5a1.5 1.5 0 1 1-1.5-1.5 1.5 1.5 0 0 1 1.5 1.5" class="cls-9"/>
                <path id="Path_8891" d="M452.8 18.5a1.5 1.5 0 1 1-1.5-1.5 1.5 1.5 0 0 1 1.5 1.5" class="cls-9"/>
                <path id="Line_4742" d="M0 10L0 0" class="cls-3" transform="translate(447.8 39)"/>
                <path id="Path_8892" d="M406.7 19.5c.1 4.7 1.3 9.2 8.1 9.5s9-5.3 9.2-10.3" class="cls-8"/>
                <path id="Path_8893" d="M424 19.1c-.4.1.6-2.1-1.8-3.8a3.3 3.3 0 0 1-1.4-3 1.1 1.1 0 0 0-1.8-.8 12.5 12.5 0 0 1-6.9 2.3 1.8 1.8 0 0 0-1.8 1.2 12 12 0 0 1-3.8 4.8" class="cls-8"/>
                <path id="Path_8894" d="M409.8 28v3l4 7.1a1.7 1.7 0 0 0 3 0l3.9-7.1v-4" class="cls-8"/>
                <path id="Path_8895" d="M416.8 49h-20c0-7.9.2-9.4 1.8-12.3s8.6-5.4 11.2-5.7" class="cls-4"/>
                <path id="Path_8896" d="M420.8 31a26.4 26.4 0 0 1 5 1.3" class="cls-8"/>
                <path id="Line_4743" d="M0 0L0 8" class="cls-8" transform="translate(404.8 41)"/>
                <path id="Path_8897" d="M402.8 33V15.7a13.7 13.7 0 0 1 1.8-7.3c3.4-5.2 8.9-5.6 12.2-5.4s5.7.9 6 6c0 0 5.2-1.2 5 5v16" class="cls-8"/>
                <path id="Line_4744" d="M0 0L0 10" class="cls-8" transform="translate(415.8 39)"/>
                <path id="Path_8898" d="M413.8 19.5a1.5 1.5 0 1 1-1.5-1.5 1.5 1.5 0 0 1 1.5 1.5" class="cls-9"/>
                <path id="Path_8899" d="M419.8 19.5a1.5 1.5 0 1 1-1.5-1.5 1.5 1.5 0 0 1 1.5 1.5" class="cls-9"/>
                <path id="Path_8900" d="M415.9 13.1a11.1 11.1 0 0 1-7.8-.3" class="cls-8"/>
                <path id="Path_8901" d="M405.1 20.7a9.5 9.5 0 0 0 2.6-1.9" class="cls-8"/>
                <circle id="Ellipse_384" cx="1.5" cy="1.5" r="1.5" class="cls-3" transform="translate(408.8 42)"/>
                <path id="Path_8902" d="M409.6 8.3a14.9 14.9 0 0 0 5.7 1.4" class="cls-4"/>
                <path id="Path_8903" d="M16.7 55a1.1 1.1 0 1 1-1.1-1.1 1.1 1.1 0 0 1 1.1 1.1z" class="cls-6"/>
                <path id="Path_8904" d="M34.4 13.1a1.1 1.1 0 1 1-1-1.1 1.1 1.1 0 0 1 1 1.1z" class="cls-6"/>
                <path id="Path_8905" d="M58.6 54.3a1.1 1.1 0 1 1-1.1-1.1 1.1 1.1 0 0 1 1.1 1.1z" class="cls-6"/>
                <circle id="Ellipse_385" cx="1.8" cy="1.8" r="1.8" class="cls-6" transform="translate(38 35.4)"/>
                <path id="Path_8906" d="M50.8 23a1.1 1.1 0 1 1-1.1-1.1 1.1 1.1 0 0 1 1.1 1.1z" class="cls-6"/>
                <path id="Path_8907" d="M4.6 47.9a1.1 1.1 0 1 1-1.1-1.1 1.1 1.1 0 0 1 1.1 1.1z" class="cls-6"/>
                <path id="Path_8908" d="M34.4 66.3a1.1 1.1 0 1 1-1.1-1.1 1.1 1.1 0 0 1 1.1 1.1z" class="cls-6"/>
                <path id="Line_4745" d="M0 0L36.9 0" class="cls-6" transform="translate(19.9 54.3)"/>
                <path id="Line_4746" d="M7.5 29.3L0 0" class="cls-6" transform="translate(49.6 23.9)"/>
                <path id="Line_4747" d="M44.6 0L0 24.2" class="cls-6" transform="translate(4 23.4)"/>
                <path id="Line_4748" d="M0 0L16.5 10.8" class="cls-3" transform="translate(16.2 55.2)"/>
                <path id="Line_4749" d="M0 0L8.3 4.2" class="cls-6" transform="translate(3.9 48.6)"/>
                <path id="Line_4750" d="M0 51.1L0 0" class="cls-3" transform="translate(33.4 14.5)"/>
                <path id="Line_4751" d="M17.4 0L0 39.9" class="cls-3" transform="translate(15.7 14.1)"/>
                <path id="Line_4752" d="M37.6 0L0 0" class="cls-6" transform="translate(10.7 23)"/>
                <path id="Path_8909" d="M10.3 23a1.1 1.1 0 1 1-1.1-1.1 1.1 1.1 0 0 1 1.1 1.1z" class="cls-6"/>
                <path id="Line_4753" d="M5.8 0L0 23.2" class="cls-6" transform="translate(3.5 23.9)"/>
                <path id="Line_4754" d="M0 0L3.5 0" class="cls-6" transform="translate(40.5 62.1)"/>
                <path id="Line_4755" d="M0 0L3.6 0" class="cls-6" transform="translate(45.4 62.1)"/>
                <path id="Line_4756" d="M0 0L7.1 0" class="cls-6" transform="translate(1.4 55)"/>
                <path id="Line_4757" d="M3.6 0L0 0" class="cls-6" transform="translate(21.3 18)"/>
                <path id="Line_4758" d="M2.9 0L0 0" class="cls-6" transform="translate(14.9 14.5)"/>
                <path id="Line_4759" d="M2.8 0L0 0" class="cls-6" transform="translate(10.7 14.5)"/>
                <path id="Line_4760" d="M3.5 0L0 0" class="cls-6" transform="translate(5 14.5)"/>
                <path id="Line_4761" d="M3.6 0L0 0" class="cls-6" transform="translate(0 14.5)"/>
                <path id="Path_8910" d="M57.5 64.5a2.5 2.5 0 1 1-2.5-2.4 2.5 2.5 0 0 1 2.5 2.4z" class="cls-6"/>
            </g>
        </g>
    </g>
</svg>
