<svg xmlns="http://www.w3.org/2000/svg" id="graphic-wipro-features-2" width="474.3" height="180" viewBox="0 0 474.3 180">
    <defs>
        <clipPath id="clip-path">
            <path id="Rectangle_9585" fill="none" d="M0 0H391.66V180H0z"/>
        </clipPath>
        <style>
            .cls-10,.cls-11,.cls-12,.cls-16,.cls-17,.cls-19,.cls-26,.cls-3,.cls-5,.cls-6,.cls-7,.cls-9{fill:none}.cls-3,.cls-5,.cls-6{stroke:#869095}.cls-10,.cls-11,.cls-12,.cls-3,.cls-5,.cls-6,.cls-7,.cls-9{stroke-linejoin:round}.cls-11,.cls-12,.cls-16,.cls-17,.cls-19,.cls-26,.cls-3,.cls-5,.cls-6,.cls-7,.cls-9{stroke-width:1.652px}.cls-12,.cls-17,.cls-7{stroke:#ff6138}.cls-10,.cls-11,.cls-26,.cls-9{stroke:#879196}.cls-10{stroke-width:1.652px}.cls-16,.cls-17,.cls-19,.cls-26{stroke-miterlimit:10}.cls-16,.cls-19{stroke:#869196}
        </style>
    </defs>
    <g id="graphic-wipro-features-2-2" transform="translate(195.83 90)">
        <g id="graphic-wipro-features-2-3" clip-path="url(#clip-path)" transform="translate(-195.83 -90)">
            <path id="Path_9216" d="M19 17.459V3.669A1.569 1.569 0 0 1 20.569 2.1h24.773" class="cls-3" transform="translate(-3.31 -.366)"/>
            <path id="Path_9217" fill="none" stroke="#869095" stroke-linejoin="round" stroke-width="1.652px" d="M46.828 68.669H20.486A1.569 1.569 0 0 1 19 67.1V56.2" transform="translate(-3.31 -9.792)"/>
            <path id="Line_1661" d="M0 0L0 23.369" class="cls-3" transform="translate(55.244 15.029)"/>
            <path id="Line_1662" d="M0 0L17.589 0" class="cls-5" transform="translate(31.792 25.186)"/>
            <path id="Line_1663" d="M0 0L17.589 0" class="cls-5" transform="translate(31.792 32.535)"/>
            <path id="Line_1664" d="M0 0L18.332 0" class="cls-3" transform="translate(31.049 40.545)"/>
            <path id="Line_1665" d="M0 0L21.222 0" class="cls-3" transform="translate(23.039 47.894)"/>
            <path id="Line_1666" d="M0 0L13.955 0" class="cls-6" transform="translate(24.443 17.093)"/>
            <path id="Path_9218" d="M50.9 15.312h13.212L50.9 2.1z" class="cls-3" transform="translate(-8.869 -.366)"/>
            <path id="Path_9219" d="M1.409 40.506l1.073 2.23a.5.5 0 0 0 .578.248l2.64-.744a11.313 11.313 0 0 0 3.386 3.138L8.51 48.1a.5.5 0 0 0 .33.578l2.312.826a.5.5 0 0 0 .578-.33l1.321-2.395a11.23 11.23 0 0 0 4.624-.165l1.486 2.23a.5.5 0 0 0 .578.165l2.23-1.073a.5.5 0 0 0 .248-.578l-.743-2.642a11.313 11.313 0 0 0 3.138-3.386l2.725.578a.5.5 0 0 0 .578-.33l.826-2.312a.5.5 0 0 0-.248-.578l-2.393-1.32a11.313 11.313 0 0 0-.165-4.624l2.312-1.569a.5.5 0 0 0 .165-.578l-1.073-2.23a.5.5 0 0 0-.578-.248l-2.642.743a11.313 11.313 0 0 0-3.386-3.138L21.31 23a.5.5 0 0 0-.33-.578l-2.313-.822a.5.5 0 0 0-.578.248l-1.4 2.56a11.23 11.23 0 0 0-4.624.165l-1.569-2.312a.5.5 0 0 0-.578-.165l-2.151 1.069a.5.5 0 0 0-.248.578l.743 2.642a11.313 11.313 0 0 0-3.138 3.386L2.4 29.193a.5.5 0 0 0-.578.33L1 31.835a.5.5 0 0 0 .248.578l2.395 1.321a11.313 11.313 0 0 0 .157 4.625l-2.23 1.569a.5.5 0 0 0-.165.578zM11.9 30.184a6.193 6.193 0 1 1-2.808 7.6 6.193 6.193 0 0 1 2.808-7.6z" class="cls-7" transform="translate(-.17 -3.759)"/>
            <circle id="Ellipse_123" cx="10.983" cy="10.983" r="10.983" class="cls-6" transform="translate(45.747 42.031)"/>
            <path id="Path_9220" fill="none" stroke="#ff6138" stroke-linejoin="round" stroke-width="1.652px" d="M67.892 69.32l5.12-5.12H59.8" transform="translate(-10.419 -11.186)"/>
            <path id="Line_1667" d="M0 0L5.12 5.12" class="cls-7" transform="translate(57.473 47.894)"/>
            <path id="Line_1668" d="M0 0L60.281 0" class="cls-9" transform="translate(26.672 145.169)"/>
            <path id="Line_1669" d="M0 0L23.947 0" class="cls-9" transform="translate(99.339 145.169)"/>
            <path id="Line_1670" d="M0 0L90.834 0" class="cls-10" transform="translate(239.719 145.169)"/>
            <path id="Line_1671" d="M0 0L9.083 0" class="cls-11" transform="translate(339.637 145.169)"/>
            <path id="Line_1672" d="M0 0L32.205 0" class="cls-9" transform="translate(359.455 145.169)"/>
            <path id="Line_1673" d="M0 0L79.769 0" class="cls-12" transform="translate(136.416 49.133)"/>
            <path id="Line_1674" d="M0 0L39.637 0" class="cls-12" transform="translate(227.002 49.133)"/>
            <path id="Line_1675" d="M0 0L79.686 0" class="cls-7" transform="translate(115.442 24.773)"/>
            <path id="Line_1676" d="M0 0L39.719 0" class="cls-12" transform="translate(200.248 24.773)"/>
            <path id="Line_1677" d="M0 0L39.719 0" class="cls-12" transform="translate(129.975 73.163)"/>
            <path id="Line_1678" d="M0 0L39.719 0" class="cls-12" transform="translate(174.401 73.163)"/>
            <path id="Line_1679" d="M0 0L95.789 0" class="cls-12" transform="translate(123.947 61.189)"/>
            <path id="Line_1680" d="M0 0L26.837 0" class="cls-12" transform="translate(245.5 61.189)"/>
            <path id="Line_1681" d="M0 0L47.729 0" class="cls-12" transform="translate(197.936 .826)"/>
            <path id="Line_1682" d="M0 0L47.647 0" class="cls-7" transform="translate(156.73 12.799)"/>
            <path id="Line_1683" d="M0 0L8.423 0" class="cls-12" transform="translate(209.249 12.799)"/>
            <path id="Line_1684" d="M0 0L39.719 0" class="cls-12" transform="translate(129.975 36.829)"/>
            <path id="Line_1685" d="M0 0L47.647 0" class="cls-7" transform="translate(176.135 36.829)"/>
            <path id="Line_1686" d="M0 0L8.423 0" class="cls-12" transform="translate(228.654 36.829)"/>
            <path id="Line_1687" fill="none" stroke="#879196" stroke-linejoin="round" stroke-width="1.652px" d="M0 52.849L0 0" transform="translate(151.858 126.342)"/>
            <path id="Line_1688" d="M0 0L36.334 0" class="cls-11" transform="translate(189.017 126.342)"/>
            <path id="Line_1689" d="M0 0L36.334 0" class="cls-11" transform="translate(136.168 126.342)"/>
            <path id="Path_9221" d="M201.251 139H166.9a1.817 1.817 0 0 0-1.9 1.817v60.776a1.817 1.817 0 0 0 1.817 1.817h85.467a1.817 1.817 0 0 0 1.9-1.817v-60.777a1.817 1.817 0 0 0-1.9-1.817h-34.518" class="cls-9" transform="translate(-28.749 -24.218)"/>
            <path id="Line_1690" d="M0 0L4.129 0" class="cls-12" transform="translate(140.297 120.562)"/>
            <path id="Line_1691" d="M0 0L4.129 0" class="cls-12" transform="translate(146.903 120.562)"/>
            <path id="Line_1692" d="M0 0L4.129 0" class="cls-12" transform="translate(153.51 120.562)"/>
            <path id="Line_1693" fill="none" stroke="#ff6138" stroke-miterlimit="10" stroke-width="1.652px" d="M0 53.675L0 0" transform="translate(180.76 118.91)"/>
            <path id="Path_9222" fill="none" stroke="#869196" stroke-miterlimit="10" stroke-width="1.652px" d="M212.9 123.129V119h28.076" transform="translate(-37.095 -20.734)"/>
            <path id="Line_1694" d="M0 62.758L0 0" class="cls-16" transform="translate(175.805 109.827)"/>
            <path id="Path_9223" d="M230.9 203.25V176h6.606" class="cls-17" transform="translate(-40.231 -30.666)"/>
            <path id="Path_9224" fill="none" stroke="#ff6138" stroke-miterlimit="10" stroke-width="1.652px" d="M218.976 179.2V128H190.9" transform="translate(-33.262 -22.302)"/>
            <path id="Line_1695" d="M0 10.735L0 0" class="cls-16" transform="translate(185.714 161.85)"/>
            <path id="Path_9225" d="M204.461 200.985V163H192.9" class="cls-17" transform="translate(-33.61 -28.4)"/>
            <path id="Line_1696" d="M0 0L2.477 0" class="cls-19" transform="translate(147.729 105.698)"/>
            <path id="Line_1697" d="M0 0L2.477 0" class="cls-19" transform="translate(152.684 105.698)"/>
            <path id="Line_1698" d="M0 0L2.477 0" class="cls-19" transform="translate(206.358 98.266)"/>
            <path id="Line_1699" d="M0 0L2.477 0" class="cls-19" transform="translate(211.313 98.266)"/>
            <path id="Path_9226" fill="none" stroke="#ff6138" stroke-dasharray="4 6" stroke-miterlimit="10" stroke-width="1.652px" d="M31.3 83.656h44.591a8.258 8.258 0 0 0 8.258-8.256V58.058a8.258 8.258 0 0 1 8.258-8.258h20.644" transform="translate(-5.454 -8.677)"/>
            <path id="Path_9227" fill="none" stroke="#ff6138" stroke-dasharray="4 6" stroke-miterlimit="10" stroke-width="1.652px" d="M417.051 83.656h-44.592A8.258 8.258 0 0 1 364.2 75.4V58.058a8.258 8.258 0 0 0-8.258-8.258H335.3" transform="translate(-58.421 -8.677)"/>
            <path id="Path_9228" fill="none" stroke="#879196" stroke-miterlimit="10" stroke-width="1.652px" d="M89.521 111.827a17.424 17.424 0 1 0 6.689-8.01" transform="translate(-15.368 -17.607)"/>
            <path id="Path_9229" fill="none" stroke="#879196" stroke-miterlimit="10" stroke-width="1.652px" d="M94.8 106.1a17.506 17.506 0 0 0-3.8 4.624" transform="translate(-15.855 -18.486)"/>
            <path id="Path_9230" fill="none" stroke="#ff6138" stroke-miterlimit="10" stroke-width="1.652px" d="M117.908 127.142a14.038 14.038 0 1 1 1.734-3.386" transform="translate(-16.092 -18.307)"/>
            <path id="Path_9231" fill="none" stroke="#879196" stroke-miterlimit="10" stroke-width="1.652px" d="M126.493 131.8l13.212 13.212a4.542 4.542 0 0 1-6.358 6.358L120.3 138.406" transform="translate(-20.961 -22.964)"/>
            <path id="Line_1700" d="M4.459 0L0 4.707" class="cls-26" transform="translate(110.818 120.479)"/>
            <path id="Line_1701" d="M4.459 0L0 4.624" class="cls-26" transform="translate(108.423 118.084)"/>
            <path id="Path_9232" fill="none" stroke="#ff6138" stroke-linejoin="round" stroke-width="1.652px" d="M331.474 127.63h-9.992v4.542l-4.955-4.542h-5.78a2.23 2.23 0 0 1-2.147-2.23v-19.653a2.147 2.147 0 0 1 2.147-2.147h25.434a2.147 2.147 0 0 1 2.147 2.147v12.717" transform="translate(-53.769 -18.051)"/>
            <path id="Path_9233" fill="none" stroke="#879196" stroke-linejoin="round" stroke-width="1.652px" d="M335.6 107.1h2.312c1.239 0 2.312 1.486 2.312 3.3v3.551" transform="translate(-58.474 -18.661)"/>
            <path id="Line_1702" d="M0 0L5.698 0" class="cls-9" transform="translate(269.116 88.439)"/>
            <path id="Line_1703" d="M0 0L2.312 0" class="cls-9" transform="translate(264.575 88.439)"/>
            <path id="Path_9234" fill="none" stroke="#879196" stroke-linejoin="round" stroke-width="1.652px" d="M355.946 148.347v4.624l4.955-4.624h5.78a2.147 2.147 0 0 0 2.147-2.147v-19.653a2.147 2.147 0 0 0-2.147-2.147h-25.434a2.147 2.147 0 0 0-2.147 2.147V146.2a2.147 2.147 0 0 0 2.147 2.147z" transform="translate(-59.083 -21.675)"/>
            <path id="Path_9235" d="M366 127.9h2.312c1.239 0 2.312 1.486 2.312 3.3v3.551" class="cls-10" transform="translate(-63.77 -22.285)"/>
            <path id="Line_1704" d="M0 0L5.698 0" class="cls-9" transform="translate(294.302 105.615)"/>
            <path id="Line_1705" d="M0 0L2.89 0" class="cls-9" transform="translate(289.678 105.615)"/>
            <path id="Line_1706" d="M0 0L25.021 0" class="cls-12" transform="translate(350.95 29.149)"/>
            <path id="Rectangle_9582" d="M0 0H4.624V4.583H0z" class="cls-10" transform="rotate(-.2 7824.259 -98280.891)"/>
            <path id="Line_1707" d="M0 0L25.021 0" class="cls-12" transform="translate(350.95 39.719)"/>
            <path id="Rectangle_9583" d="M0 0H4.624V4.583H0z" class="cls-10" transform="rotate(-.2 10828.537 -98262.47)"/>
            <path id="Line_1708" d="M0 0L25.021 0" class="cls-12" transform="translate(350.95 50.206)"/>
            <path id="Rectangle_9584" d="M0 0H4.624V4.583H0z" class="cls-10" transform="rotate(-.2 13832.856 -98267.54)"/>
            <path id="Line_1709" d="M0 42.031L0 0" class="cls-12" transform="translate(331.875 19.983)"/>
            <path id="Line_1710" d="M0 0L71.016 0" class="cls-9" transform="translate(319.405 19.983)"/>
            <path id="Path_9236" fill="none" stroke="#879196" stroke-linejoin="round" stroke-width="1.652px" d="M456.329 64.28a1.486 1.486 0 0 0 1.486-1.4V14.486A1.486 1.486 0 0 0 456.329 13h-68.043a1.486 1.486 0 0 0-1.486 1.4v48.476a1.486 1.486 0 0 0 1.486 1.4z" transform="translate(-67.395 -2.265)"/>
            <path id="Line_1711" d="M0 0L3.303 0" class="cls-3" transform="translate(322.709 15.359)"/>
            <path id="Line_1712" d="M0 0L3.303 0" class="cls-3" transform="translate(327.911 15.359)"/>
            <path id="Line_1713" d="M0 0L3.303 0" class="cls-3" transform="translate(333.196 15.359)"/>
        </g>
    </g>
</svg>
