<svg xmlns="http://www.w3.org/2000/svg" id="grqphic-wipro-healthcare-secondary" width="675.8" height="431.91" viewBox="0 0 675.8 431.91">
    <defs>
        <clipPath id="clip-path">
            <path id="Rectangle_9424" fill="none" d="M0 0H675.8V431.91H0z"/>
        </clipPath>
        <style>
            .cls-12,.cls-3,.cls-6,.cls-7,.cls-8,.cls-9{fill:none}.cls-3,.cls-9{stroke:#879196}.cls-3,.cls-6,.cls-7{stroke-miterlimit:10}.cls-12,.cls-3,.cls-6,.cls-7,.cls-8,.cls-9{stroke-width:2px}.cls-5{fill:#879195}.cls-6{stroke:#879195}.cls-7,.cls-8{stroke:#ff6138}.cls-12,.cls-8,.cls-9{stroke-linejoin:round}.cls-12{stroke:#869196}
        </style>
    </defs>
    <g id="grqphic-wipro-healthcare-secondary-2" transform="translate(337.9 215.955)">
        <g id="Group_7108" clip-path="url(#clip-path)" transform="translate(-337.9 -215.955)">
            <path id="Path_8524" d="M206.9 346.1A136.8 136.8 0 0 1 99.2 187" class="cls-3"/>
            <path id="Path_8525" fill="#879196" d="M106.2 195l-1.7 1.1-5.4-8.3-7.8 6-1.2-1.6 9.5-7.3z"/>
            <path id="Path_8526" d="M312.5 99.7a137 137 0 0 1 57.1 93.5" class="cls-3"/>
            <path id="Path_8527" d="M193.2 81a137.4 137.4 0 0 1 97.2 6.1" class="cls-3"/>
            <path id="Path_8528" d="M330.5 307.5a137.4 137.4 0 0 0 39.5-89" class="cls-3"/>
            <path id="Rectangle_9406" d="M0 0H3.5V3.47H0z" class="cls-5" transform="translate(0 75.5)"/>
            <path id="Rectangle_9407" d="M0 0H3.5V3.47H0z" class="cls-5" transform="translate(0 87.7)"/>
            <path id="Rectangle_9408" d="M0 0H3.5V3.47H0z" class="cls-5" transform="translate(0 99.8)"/>
            <path id="Rectangle_9409" d="M0 0H3.5V3.47H0z" class="cls-5" transform="translate(0 111.9)"/>
            <path id="Rectangle_9410" d="M0 0H3.5V3.47H0z" class="cls-5" transform="translate(0 124.1)"/>
            <path id="Rectangle_9411" d="M0 0H3.5V3.47H0z" class="cls-5" transform="translate(0 136.2)"/>
            <path id="Line_1181" d="M0 0L41.2 0" class="cls-6" transform="translate(10.5 77.1)"/>
            <path id="Line_1182" d="M0 0L30.8 0" class="cls-6" transform="translate(57.6 77.1)"/>
            <path id="Line_1183" d="M0 0L39.9 0" class="cls-7" transform="translate(31.2 89.3)"/>
            <path id="Line_1184" d="M0 0L12.1 0" class="cls-6" transform="translate(20.8 101.5)"/>
            <path id="Line_1185" d="M0 0L67.7 0" class="cls-6" transform="translate(38.1 101.5)"/>
            <path id="Line_1186" d="M0 0L18.7 0" class="cls-6" transform="translate(76.3 89.3)"/>
            <path id="Line_1187" d="M0 0L39.9 0" class="cls-6" transform="translate(31.2 113.6)"/>
            <path id="Line_1188" d="M0 0L12.1 0" class="cls-6" transform="translate(20.8 125.8)"/>
            <path id="Line_1189" d="M0 0L12.2 0" class="cls-6" transform="translate(38.1 125.8)"/>
            <path id="Line_1190" d="M0 0L53.7 0" class="cls-6" transform="translate(55.5 125.8)"/>
            <path id="Line_1191" d="M0 0L18.7 0" class="cls-7" transform="translate(76.3 113.6)"/>
            <path id="Line_1192" d="M0 0L36.4 0" class="cls-7" transform="translate(100.6 113.6)"/>
            <path id="Line_1193" d="M0 0L39.9 0" class="cls-6" transform="translate(15.6 137.9)"/>
            <path id="Line_1194" d="M0 0L18.7 0" class="cls-7" transform="translate(60.7 137.9)"/>
            <path id="Line_1195" d="M0 0L36.4 0" class="cls-6" transform="translate(85 137.9)"/>
            <path id="Rectangle_9412" d="M0 0H3.5V3.47H0z" class="cls-5" transform="translate(0 148.3)"/>
            <path id="Rectangle_9413" d="M0 0H3.5V3.47H0z" class="cls-5" transform="translate(0 160.5)"/>
            <path id="Line_1196" d="M0 0L12.1 0" class="cls-6" transform="translate(20.8 150.1)"/>
            <path id="Line_1197" d="M0 0L67.7 0" class="cls-7" transform="translate(38.1 150.1)"/>
            <path id="Line_1198" d="M0 0L39.9 0" class="cls-6" transform="translate(31.2 162.1)"/>
            <path id="Line_1199" d="M0 0L18.7 0" class="cls-7" transform="translate(76.3 162.1)"/>
            <path id="Line_1200" d="M0 0L36.4 0" class="cls-6" transform="translate(100.6 162.1)"/>
            <path id="Path_8529" d="M218.9 180.6c-3.2-1.6-6.8-5.1-7.4-12.6a14.3 14.3 0 0 0-7-11.2c-5-3.2-11-4.6-16.8-5.7s-11.6-2-17.4-2.7-10.5-1.5-15.9-2.4c-.1 1.1 2.7 7.9 5.3 10.8s5.9 5.9 8.9 7.3c-5.6-.4-11.1-2-16.5-3.5 1.9 9.9 18.3 18.2 23.7 20-.5.8-13.7-1.3-14.4-1 .7 6.7 13 12.9 19.4 14.4" class="cls-8"/>
            <path id="Path_8530" d="M213.1 205.3c2.7-.4 7.3-3.1 7.5-3.3" class="cls-8"/>
            <path id="Line_1201" d="M1.6 0L0 20.1" class="cls-8" transform="translate(233.4 245.2)"/>
            <path id="Line_1202" d="M0.7 0L0 12.1" class="cls-8" transform="translate(235.2 222.6)"/>
            <path id="Line_1203" d="M2.5 0L0 42" class="cls-8" transform="translate(236.8 164.9)"/>
            <path id="Line_1204" d="M2.4 40.5L0 0" class="cls-8" transform="translate(223.3 165.9)"/>
            <path id="Line_1205" d="M1.4 12.5L0 0" class="cls-8" transform="translate(226.5 223.3)"/>
            <path id="Line_1206" d="M1.1 17.9L0 0" class="cls-8" transform="translate(228 246.4)"/>
            <path id="Path_8531" d="M243.1 150.2a12.1 12.1 0 1 0-12.1 12.1 12.1 12.1 0 0 0 12.1-12.1z" class="cls-8"/>
            <path id="Path_8532" d="M193 189.1a18.1 18.1 0 0 0-2.9 4.8 16.7 16.7 0 0 0-.4 11.4" class="cls-8"/>
            <path id="Path_8533" d="M204.1 262.3c2.2 3 6 5.4 11.1 6.8s23.1 5.7 23.7 11.8c.4 3.8-2.1 7.4-7.1 7.8-7.7.7-7.7 7-2.2 7s18.5-3.5 17.1-15.3-10.6-13.3-25.2-17.7c-5.5-1.7-13.4-5.3-8.7-11.8s20-1.5 32.6-10.4c8.2-5.8 12.1-22.9-4.8-26.5-11.3-2.4-38.5-1.2-41.8-12.7-1.5-5.1 2.9-12 19.3-8.1 2.6.6-4.8-9.2-10.2-9.9a17.4 17.4 0 0 0-11.2 2.5" class="cls-8"/>
            <path id="Path_8534" d="M203.7 246.4a13.9 13.9 0 0 0-2 6 15.7 15.7 0 0 0 .3 5.1" class="cls-8"/>
            <path id="Path_8535" d="M192.4 210.4a17 17 0 0 0 6.9 5.3c8.2 3.5 19.2 4.4 32.5 6.2 4.3.6 12.1 1.2 11 7.3s-12.2 8.1-22 9.2c-3.9.4-10.6 1.4-14.9 5.5" class="cls-8"/>
            <path id="Path_8536" d="M215.4 239.2c-5-4.8-7.7-13.9-3-19.9" class="cls-8"/>
            <path id="Path_8537" d="M230.9 265.9c3-1.1 6.3-2.1 9.9-3.2 5.5-1.7 13.4-5.3 8.7-11.8-3-4.2-10.2-3.7-18.3-5" class="cls-8"/>
            <path id="Path_8538" d="M225.8 293.6c-6-1.1-11.2-5.5-10.2-13.2a13.5 13.5 0 0 1 5.5-9.7" class="cls-8"/>
            <path id="Path_8539" d="M231.2 274.2c-4.2 1.8-7.6 4.1-7.9 6.7s2.9 7.4 7.9 7.9" class="cls-8"/>
            <path id="Path_8540" d="M260.7 255.3c-.4 6.6-5 11.4-13.6 13.8l-5.4 1.5" class="cls-8"/>
            <path id="Path_8541" d="M246.9 239.2c4.9 1.1 10.6 3.6 12.9 9.3" class="cls-8"/>
            <path id="Path_8542" d="M230.6 221.9c-4.3.6-12.1 1.2-11 7.3.7 3.8 5.6 6.1 11.8 7.6" class="cls-8"/>
            <path id="Path_8543" d="M272.6 205.2a16.8 16.8 0 0 1-9.6 10.5 59.2 59.2 0 0 1-13.1 3.6" class="cls-8"/>
            <path id="Path_8544" d="M231.3 212.8c12.7-1.2 29.8-2.7 32.3-11.5 1.5-5.1-2.9-12-19.3-8.1-2.6.6 4.8-9.2 10.2-9.9a16.9 16.9 0 0 1 17.8 10.5 15 15 0 0 1 .9 2.9" class="cls-8"/>
            <path id="Path_8545" d="M243 180.6c3.2-1.6 6.8-5.1 7.4-12.6a14.3 14.3 0 0 1 7-11.2c5-3.2 11-4.6 16.8-5.7s11.6-2 17.4-2.7 10.5-1.5 15.9-2.4c.1 1.1-2.7 7.9-5.3 10.8s-5.9 5.9-8.9 7.3c5.6-.4 11.1-2 16.5-3.5-1.9 9.9-18.3 18.2-23.7 20 .5.8 13.7-1.3 14.4-1-.7 6.7-13 12.9-19.4 14.4" class="cls-8"/>
            <path id="Path_8546" d="M248.8 205.3c-2.7-.4-7.3-3.1-7.5-3.3" class="cls-8"/>
            <path id="Path_8547" d="M180.3 158.2s1.8 11.8 18.5 15.3" class="cls-8"/>
            <path id="Path_8548" d="M283.1 158.2s-1.8 11.8-18.5 15.3" class="cls-8"/>
            <path id="Path_8549" d="M571.4 195.3a31.794 31.794 0 0 1-.2-3.8c0-10.9 7.4-23.5 18-28 13.6-5.8 26-1.4 34.2 6.8a36.7 36.7 0 0 1 8.4 13.8c6.9-9.4 22.4-6.4 23.6 10.5v.2c7 1.2 19.5 6.2 19.5 21.8 0 20.1-20 21.8-20 21.8H577c-11.6 0-21.5-8.9-22-20.5v-1.4c0-13.3 8.7-19.2 16.5-21.2z" class="cls-9"/>
            <path id="Path_8550" d="M300.8 116.1V26.8h86.4" class="cls-9"/>
            <path id="Line_1207" d="M0 0L5.8 0" class="cls-9" transform="translate(395.8 26.8)"/>
            <path id="Line_1208" d="M0 0L11.5 0" class="cls-9" transform="translate(408.8 26.8)"/>
            <path id="Line_1209" fill="none" stroke="#ff6138" stroke-dasharray="4 6" stroke-miterlimit="10" stroke-width="2px" d="M0 0L196.4 0" transform="translate(349.8 205.3)"/>
            <path id="Path_8551" fill="#ff6138" d="M539.6 213.5l-1.4-1.5 7.2-6.7-7.2-6.7 1.4-1.5 8.8 8.2z"/>
            <path id="Rectangle_9414" d="M0 0H19.4V19.44H0z" class="cls-8" transform="translate(477 213.2)"/>
            <path id="Rectangle_9415" d="M0 0H19.4V19.44H0z" class="cls-8" transform="translate(447.8 262.1)"/>
            <path id="Rectangle_9416" d="M0 0H19.4V19.44H0z" class="cls-8" transform="translate(431.6 178.3)"/>
            <path id="Rectangle_9417" d="M0 0H19.4V19.44H0z" class="cls-8" transform="translate(434.9 226.5)"/>
            <path id="Rectangle_9418" d="M0 0H19.4V19.44H0z" class="cls-12" transform="translate(386.3 165)"/>
            <path id="Rectangle_9419" d="M0 0H19.4V19.44H0z" class="cls-8" transform="translate(457.5 155.2)"/>
            <path id="Rectangle_9420" d="M0 0H19.4V19.44H0z" class="cls-12" transform="translate(399.2 213.2)"/>
            <path id="Rectangle_9421" d="M0 0H19.4V19.44H0z" class="cls-12" transform="translate(386.3 245.9)"/>
            <path id="Rectangle_9422" d="M0 0H19.4V19.44H0z" class="cls-8" transform="translate(324.4 142.3)"/>
            <path id="Rectangle_9423" d="M0 0H19.4V19.44H0z" class="cls-12" transform="translate(496.4 135.8)"/>
            <path id="Path_8552" d="M307.8 325.3c-12.5 2.3-28-2.1-35.3-13.2-7.2 11-21.1 15.5-33.6 13.2l-5.9-.9a2.8 2.8 0 0 0-3.2 2.8v78.6a2.8 2.8 0 0 0 1.4 2.4l40 22.4a2.8 2.8 0 0 0 2.7 0l40-22.4a2.8 2.8 0 0 0 1.4-2.4v-78.5a2.8 2.8 0 0 0-3.3-2.8z" class="cls-9"/>
            <path id="Path_8553" d="M238.2 402.4v-68.7a44.2 44.2 0 0 0 7.2.6 41.7 41.7 0 0 0 27.2-9.7 45.2 45.2 0 0 0 28.5 9.7 46 46 0 0 0 5.7-.4v68.5l-34.4 19.2z" class="cls-8"/>
            <path id="Line_1210" d="M68.7 21.6L0 0" class="cls-8" transform="translate(238.3 343.8)"/>
            <path id="Line_1211" d="M39.5 12.4L0 0" class="cls-9" transform="translate(238.3 363.6)"/>
            <path id="Line_1212" d="M7 2.4L0 0" class="cls-9" transform="translate(281.8 377.1)"/>
            <path id="Line_1213" d="M14.4 4.5L0 0" class="cls-9" transform="translate(292.6 380.7)"/>
            <path id="Path_8554" d="M441.1 46v1h-4v-1" class="cls-3"/>
            <path id="Line_1214" d="M0 0L46 0" class="cls-3" transform="translate(480.1 51)"/>
            <path id="Line_1215" d="M0 0L37 0" class="cls-3" transform="translate(426.1 51)"/>
            <path id="Path_8555" d="M502.2 17a38.9 38.9 0 0 1 12.9 29" class="cls-3"/>
            <path id="Path_8556" d="M437.1 46a39 39 0 0 1 62.7-31" class="cls-3"/>
            <path id="Path_8557" d="M490.1 3.2a44.8 44.8 0 0 1 9 4.1" class="cls-8"/>
            <path id="Path_8558" d="M436.3 25a45 45 0 0 1 49.8-22.9" class="cls-8"/>
            <path id="Path_8559" d="M494.1 25.4a30.4 30.4 0 0 1 8 20.6" class="cls-3"/>
            <path id="Path_8560" d="M441.1 46a30.5 30.5 0 0 1 50-23.5" class="cls-3"/>
            <path id="Path_8561" d="M515.1 46v1h-13v-1" class="cls-3"/>
            <circle id="Ellipse_97" cx="10" cy="10" r="10" class="cls-3" transform="translate(461.6 36)"/>
            <path id="Path_8562" d="M465.6 46a6 6 0 1 1 6 6" class="cls-8"/>
            <path id="Path_8563" d="M475.2 37l33.5-30 1.4 1.4-30 33.5" class="cls-8"/>
            <path id="Line_1216" d="M0 6L10.8 0" class="cls-8" transform="translate(498 25)"/>
            <path id="Line_1217" d="M0 3.2L13 0" class="cls-8" transform="translate(501.1 35.4)"/>
        </g>
    </g>
</svg>
