<svg xmlns="http://www.w3.org/2000/svg" id="graphic-wipro-benefits-2" width="458.6" height="253.35" viewBox="0 0 458.6 253.35">
    <defs>
        <clipPath id="clip-path">
            <path id="Rectangle_9670" fill="none" d="M0 0H458.6V253.35H0z"/>
        </clipPath>
        <style>
            .cls-2,.cls-3,.cls-4,.cls-8{fill:none}.cls-2{stroke:#869196}.cls-2,.cls-3,.cls-4{stroke-linejoin:round}.cls-2,.cls-3,.cls-4,.cls-8{stroke-width:2px}.cls-3{stroke:#ff6138}.cls-4,.cls-8{stroke:#879196}.cls-5{clip-path:url(#clip-path)}.cls-8{stroke-miterlimit:10}.cls-9{fill:#879196}
        </style>
    </defs>
    <g id="graphic-wipro-benefits-2-2" transform="translate(229.3 126.675)">
        <g id="Group_7148" transform="translate(-229.3 -126.675)">
            <path id="Rectangle_9650" d="M0 0H10.5V10.51H0z" class="cls-2" transform="translate(288.8 129.8)"/>
            <path id="Rectangle_9651" d="M0 0H10.5V10.51H0z" class="cls-2" transform="translate(304.6 156.3)"/>
            <path id="Rectangle_9652" d="M0 0H10.5V10.51H0z" class="cls-2" transform="translate(313.3 111)"/>
            <path id="Rectangle_9653" d="M0 0H10.5V10.51H0z" class="cls-3" transform="translate(311.6 137)"/>
            <path id="Rectangle_9654" d="M0 0H10.5V10.51H0z" class="cls-2" transform="translate(337.9 103.8)"/>
            <path id="Rectangle_9655" d="M0 0H10.5V10.51H0z" class="cls-3" transform="translate(299.3 98.5)"/>
            <path id="Rectangle_9656" d="M0 0H10.5V10.51H0z" class="cls-2" transform="translate(330.9 129.8)"/>
            <path id="Rectangle_9657" d="M0 0H10.5V10.51H0z" class="cls-2" transform="translate(337.9 147.5)"/>
            <path id="Rectangle_9658" d="M0 0H10.5V10.51H0z" class="cls-3" transform="translate(371.3 91.5)"/>
            <path id="Rectangle_9659" d="M0 0H10.5V10.51H0z" class="cls-2" transform="translate(278.3 88)"/>
            <path id="Rectangle_9660" d="M0 0H10.5V10.51H0z" class="cls-2" transform="translate(77.8 129.8)"/>
            <path id="Rectangle_9661" d="M0 0H10.5V10.51H0z" class="cls-2" transform="translate(93.6 156.3)"/>
            <path id="Rectangle_9662" d="M0 0H10.5V10.51H0z" class="cls-2" transform="translate(102.3 111)"/>
            <path id="Rectangle_9663" d="M0 0H10.5V10.51H0z" class="cls-3" transform="translate(100.6 137)"/>
            <path id="Rectangle_9664" d="M0 0H10.5V10.51H0z" class="cls-2" transform="translate(126.9 103.8)"/>
            <path id="Rectangle_9665" d="M0 0H10.5V10.51H0z" class="cls-3" transform="translate(88.3 98.5)"/>
            <path id="Rectangle_9666" d="M0 0H10.5V10.51H0z" class="cls-2" transform="translate(119.9 129.8)"/>
            <path id="Rectangle_9667" d="M0 0H10.5V10.51H0z" class="cls-2" transform="translate(126.9 147.5)"/>
            <path id="Rectangle_9668" d="M0 0H10.5V10.51H0z" class="cls-3" transform="translate(160.3 91.5)"/>
            <path id="Rectangle_9669" d="M0 0H10.5V10.51H0z" class="cls-2" transform="translate(67.3 88)"/>
            <path id="Line_2031" d="M0 0L73 0" class="cls-4" transform="translate(16.6 230.8)"/>
            <path id="Line_2032" d="M0 0L68.2 0" class="cls-4" transform="translate(104.6 230.8)"/>
            <path id="Line_2033" d="M0 0L110 0" class="cls-4" transform="translate(274.6 230.8)"/>
            <path id="Line_2034" d="M0 0L11 0" class="cls-4" transform="translate(395.6 230.8)"/>
            <g id="Group_7146" class="cls-5">
                <path id="Line_2035" d="M0 0L39 0" class="cls-4" transform="translate(419.6 230.8)"/>
            </g>
            <path id="Rectangle_9671" d="M0 0H8.3V8.3H0z" class="cls-3" transform="translate(23.8 128.9)"/>
            <path id="Rectangle_9672" d="M0 0H8.3V8.3H0z" class="cls-4" transform="translate(35.7 128.9)"/>
            <path id="Rectangle_9673" d="M0 0H8.3V8.3H0z" class="cls-4" transform="translate(23.8 140.8)"/>
            <path id="Rectangle_9674" d="M0 0H8.3V8.3H0z" class="cls-3" transform="translate(35.7 140.8)"/>
            <path id="Line_2036" d="M0 33.2L0 0" class="cls-4" transform="translate(10.9 123.7)"/>
            <g id="Group_7147" class="cls-5">
                <path id="Line_2037" d="M0 0L56 0" class="cls-4" transform="translate(1 123.7)"/>
                <path id="Path_9440" d="M55.8 156.9a1.2 1.2 0 0 0 1.2-1.1v-38.2a1.2 1.2 0 0 0-1.2-1.1H2.2a1.2 1.2 0 0 0-1.2 1.1v38.2a1.2 1.2 0 0 0 1.2 1.1z" class="cls-4"/>
                <path id="Line_2038" d="M0 0L2.6 0" class="cls-3" transform="translate(3.6 120.1)"/>
                <path id="Line_2039" fill="none" stroke="#869095" stroke-linejoin="round" stroke-width="2px" d="M0 0L2.6 0" transform="translate(7.7 120.1)"/>
                <path id="Line_2040" d="M0 0L2.6 0" class="cls-3" transform="translate(11.9 120.1)"/>
                <path id="Path_9441" fill="none" stroke="#869196" stroke-miterlimit="10" stroke-width="2px" d="M238.4 179.6c.8.1 2 .2 1.9 1.2s-.1 2-.6 2.1-1.5 4.3-1.9 5.5c-1 2.9-3.8 3.7-6.6 3.6s-4.7-.4-6.1-2.4a14.5 14.5 0 0 1-2-3.7c-.2-.7-.5-1.9-1.3-2.3a1.2 1.2 0 0 0-1 0c-.7.4-1 1.5-1.3 2.3a14.5 14.5 0 0 1-2 3.7c-1.4 2-3.8 2.4-6.1 2.4s-5.5-.7-6.6-3.6c-.4-1.2-.5-5.2-1.9-5.5s-.6-1.6-.6-2.1 1.1-1.1 1.9-1.2a33 33 0 0 1 5.9-.1 51.5 51.5 0 0 1 10.6 1.6h1a51.4 51.4 0 0 1 10.6-1.6 33 33 0 0 1 6.1.1z"/>
                <path id="Path_9442" d="M206.9 168.7s0 4.3-1.3 6.5c-3.9 6.5-7.8 6.5-7.8 6.5" class="cls-2"/>
                <path id="Path_9443" d="M248.6 216.1l-6.4 11.8 6.6 4.7-10.1 16.2" class="cls-3"/>
                <path id="Path_9444" d="M197.8 214.4l8 13.5-6.5 4.7 10 16.2" class="cls-3"/>
                <path id="Path_9445" d="M213.6 172.6c11 2.2 19.2-8.6 19.2-8.6 4.7-4.5 1.5 8.8 6.9 12.6s1.6 8.1 2.6 7.8c7.3-1.9 7.4-12.6 6.5-17-3.3-17.9-18.3-20.9-26.8-20.9-15.8-.1-24.8 13.3-25.5 22.2-1.3 17 3.9 13.1 3.9 13.1.2 11.3 6.3 26.8 21.6 27.5 17.1.7 19.8-12.8 20.3-24.8" class="cls-2"/>
                <path id="Path_9446" d="M203 150.4a15.5 15.5 0 0 1 2.7-7.3c6.9-9.8 22.5-10.3 30-3.1 1.8 1.7 4.2 5.7 4.5 8.1" class="cls-2"/>
                <path id="Path_9447" d="M210.9 205.3v7.8l9.8 29.2c1.6 2.9 2.7 2.9 4.3 0l9.5-29.2v-7.8" class="cls-2"/>
                <path id="Path_9448" d="M210.9 211.8c-5.9.8-21.1 4.5-25.9 13-3.7 6.4-4.3 9.8-4.2 27.5h85c.1-17.7.2-19.6-4.2-27.5s-21.2-12.2-27.2-13" class="cls-2"/>
                <path id="Path_9449" d="M205.9 167a10.8 10.8 0 0 0 7.6 5.5" class="cls-2"/>
                <path id="Path_9450" d="M206.2 108.1V99l2.6-11.8" class="cls-4"/>
                <path id="Path_9451" d="M208.8 70.5c.1 6.6 1.6 13.4 10.6 13.8s11.6-6.7 12-13.4" class="cls-4"/>
                <path id="Path_9452" d="M214.5 60.3a20.2 20.2 0 0 0 14.4 2.2s2 8.6 3.2 8.6 2.7-3.8 2.1-9-3.9-13.2-13.7-13.7c-3.5-.2-3.3-2.5-4.3-2.5s-.2 3.2-1 3.5-2.2-1.2-2.8-.9-.1 2.5-.6 2.9c-2.5 2-4.6 5.2-5.5 10-.5 2.5-.1 8.9 2.5 9.1.4 0-.4-2.7 2.2-4.9s.8-7.9 3.5-5.3z" class="cls-4"/>
                <path id="Path_9453" d="M211 86.7a8.9 8.9 0 0 0 9.1 7.7s8.1 0 7.8-7.9" class="cls-4"/>
                <path id="Path_9454" d="M214 83.3v2.6c-3.5.4-13 2.5-15.8 7.2s-2.5 5.4-2.4 15.1h49.6c.1-9.7.2-10.7-2.4-15.1s-12.8-6.7-17.1-7.2v-2.6" class="cls-4"/>
                <path id="Path_9455" d="M234.9 108.1V99L231 87.2" class="cls-4"/>
                <path id="Line_2041" d="M0 0L20.9 0" class="cls-3" transform="translate(210.1 97.7)"/>
                <path id="Line_2042" d="M0 0L20.9 0" class="cls-3" transform="translate(210.1 102.9)"/>
                <path id="Path_9456" d="M227.6 69.1a3.1 3.1 0 1 1-3.1-3.1 3.1 3.1 0 0 1 3.1 3.1z" class="cls-4"/>
                <path id="Path_9457" d="M218.8 69.1a3.1 3.1 0 1 1-3.1-3.1 3.1 3.1 0 0 1 3.1 3.1z" class="cls-4"/>
                <path id="Line_2043" d="M0 0L1.3 0" class="cls-4" transform="translate(219.3 68.9)"/>
                <path id="Path_9458" d="M216.7 51.8c1 1.7 5.7 3.3 7.8 3.3" class="cls-4"/>
                <path id="Path_9459" d="M251.9 24c-.3 6.6-2.2 13.9-12.5 13.5s-10.8-6.3-11-12.5v-8.3s13.4 2.9 23.5 0z" class="cls-8"/>
                <path id="Path_9460" d="M233.6 36.3v5.2l4.5 8a2.2 2.2 0 0 0 4 0l4.6-8v-5.2" class="cls-8"/>
                <path id="Path_9461" d="M238.9 63.7h26c.1-10.3.2-11.4-2.4-16s-12.4-7-15.9-7.5" class="cls-4"/>
                <path id="Path_9462" d="M233.6 40.2a39.4 39.4 0 0 0-9.1 2.6" class="cls-8"/>
                <path id="Line_2044" d="M0 0L0 5.2" class="cls-3" transform="translate(254.5 55.9)"/>
                <path id="Path_9463" d="M228.5 25.8c-3.1-1.9-7.3-12.5.2-20.1 5.3-5.4 16.7-7.5 24 .8 3.5 4 6.4 14.2-.7 19.3" class="cls-8"/>
                <path id="Path_9464" d="M237.5 23.9a2 2 0 1 1-2-2 2 2 0 0 1 2 2" class="cls-9"/>
                <path id="Path_9465" d="M246.7 23.9a2 2 0 1 1-2-2 2 2 0 0 1 2 2" class="cls-9"/>
                <path id="Line_2045" d="M0 13.1L0 0" class="cls-3" transform="translate(240.2 50.6)"/>
                <path id="Path_9466" d="M186.5 25.2c.1 6.1 1.7 12 10.5 12.4s11.7-6.9 12-13.4" class="cls-8"/>
                <path id="Path_9467" d="M209.2 24.7c-.6.1.8-2.8-2.4-4.9a4.3 4.3 0 0 1-1.8-3.9 1.5 1.5 0 0 0-2.4-1.1 16.3 16.3 0 0 1-9 3 2.4 2.4 0 0 0-2.3 1.6c-.7 2.2-2.8 4.5-5 6.3" class="cls-8"/>
                <path id="Path_9468" d="M190.5 36.3v3.9l5.3 9.3a2.2 2.2 0 0 0 4 0l5.1-9.3V35" class="cls-8"/>
                <path id="Path_9469" d="M199.7 63.7h-26.2c-.1-10.3.3-12.3 2.4-16s11.2-7 14.6-7.5" class="cls-4"/>
                <path id="Path_9470" d="M204.9 40.2a34.4 34.4 0 0 1 6.5 1.7" class="cls-8"/>
                <path id="Line_2046" d="M0 0L0 10.5" class="cls-8" transform="translate(184 53.2)"/>
                <path id="Path_9471" d="M181.4 42.8V20.2a17.9 17.9 0 0 1 2.4-9.6c4.4-6.8 11.6-7.3 15.9-7 2.6.2 7.5 1.1 7.8 7.8 0 0 6.8-1.5 6.5 6.5v21" class="cls-8"/>
                <path id="Line_2047" d="M0 0L0 13.1" class="cls-8" transform="translate(198.4 50.6)"/>
                <path id="Path_9472" d="M195.7 25.2a2 2 0 1 1-2-2 2 2 0 0 1 2 2" class="cls-9"/>
                <path id="Path_9473" d="M203.6 25.2a2 2 0 1 1-2-2 2 2 0 0 1 2 2" class="cls-9"/>
                <path id="Path_9474" d="M198.5 16.8s-5.3 2-10.2-.4" class="cls-8"/>
                <path id="Path_9475" d="M184.5 26.8a12.4 12.4 0 0 0 3.4-2.5" class="cls-8"/>
                <circle id="Ellipse_131" cx="2" cy="2" r="2" class="cls-3" transform="rotate(-76.7 131.094 -90.351)"/>
                <path id="Path_9476" d="M190.3 10.6a19.5 19.5 0 0 0 7.4 1.9" class="cls-4"/>
                <path id="Path_9477" d="M414.3 150.6h-12.1v5.5l-6-5.5h-7a2.7 2.7 0 0 1-2.6-2.7v-23.7a2.6 2.6 0 0 1 2.6-2.6H420a2.6 2.6 0 0 1 2.6 2.6v15.4" class="cls-3"/>
                <path id="Path_9478" d="M413.7 125h2.8c1.5 0 2.8 1.8 2.8 4v4.3" class="cls-4"/>
                <path id="Line_2048" d="M0 0L6.9 0" class="cls-4" transform="translate(404 125)"/>
                <path id="Line_2049" d="M0 0L2.8 0" class="cls-4" transform="translate(398.4 125)"/>
                <path id="Path_9479" d="M437.5 171.3v5.6l6-5.6h7a2.6 2.6 0 0 0 2.6-2.6v-23.8a2.6 2.6 0 0 0-2.6-2.6h-30.8a2.6 2.6 0 0 0-2.6 2.6v23.8a2.6 2.6 0 0 0 2.6 2.6z" class="cls-4"/>
                <path id="Path_9480" d="M444.1 145.8h2.8c1.5 0 2.8 1.8 2.8 4v4.3" class="cls-4"/>
                <path id="Line_2050" d="M0 0L6.9 0" class="cls-4" transform="translate(434.4 145.8)"/>
                <path id="Line_2051" d="M0 0L3.4 0" class="cls-4" transform="translate(428.9 145.8)"/>
            </g>
        </g>
    </g>
</svg>
