<svg xmlns="http://www.w3.org/2000/svg" id="graphic-wipro-features-1" width="442" height="260.8" viewBox="0 0 442 260.8">
    <defs>
        <clipPath id="clip-path">
            <path id="Rectangle_9482" fill="none" d="M0 0H442V260.8H0z"/>
        </clipPath>
        <style>
            .cls-3,.cls-4,.cls-5,.cls-8,.cls-9{fill:none}.cls-2{clip-path:url(#clip-path)}.cls-3,.cls-5{stroke:#879196}.cls-3,.cls-4,.cls-8,.cls-9{stroke-linejoin:round}.cls-3,.cls-4,.cls-5,.cls-8,.cls-9{stroke-width:2px}.cls-4{stroke:#ff6138}.cls-5{stroke-miterlimit:10}.cls-6{fill:#879196}.cls-8{stroke:#869196}.cls-9{stroke:#849095}
        </style>
    </defs>
    <g id="graphic-wipro-features-1-2" transform="translate(221 130.4)">
        <g id="Group_7114" transform="translate(-221 -130.4)">
            <g id="Group_7112" class="cls-2">
                <path id="Line_1329" d="M0 0L73 0" class="cls-3" transform="translate(0 221.9)"/>
            </g>
            <path id="Line_1330" d="M0 0L29 0" class="cls-3" transform="translate(88 221.9)"/>
            <path id="Line_1331" d="M0 0L110 0" class="cls-3" transform="translate(258 221.9)"/>
            <path id="Line_1332" d="M0 0L11 0" class="cls-3" transform="translate(379 221.9)"/>
            <g id="Group_7113" class="cls-2">
                <path id="Line_1333" d="M0 0L39 0" class="cls-3" transform="translate(403 221.9)"/>
                <path id="Path_8684" d="M168.1 75.2a85.2 85.2 0 0 0-31 22.3" class="cls-3"/>
                <path id="Path_8685" d="M278.3 118.6a85.1 85.1 0 0 0-102.5-46.2" class="cls-3"/>
                <path id="Path_8686" d="M132 103.8a84.7 84.7 0 0 0-11.1 20.9 63.8 63.8 0 0 0-77.1 52.6" class="cls-3"/>
                <path id="Path_8687" d="M269 125.4a56.3 56.3 0 0 1 91.9 30.4" class="cls-3"/>
                <path id="Line_1334" d="M0 0L96.5 0" class="cls-4" transform="translate(147.9 75.6)"/>
                <path id="Line_1335" d="M0 0L48.1 0" class="cls-4" transform="translate(257.5 75.6)"/>
                <path id="Line_1336" d="M0 0L96.6 0" class="cls-4" transform="translate(122.4 46.2)"/>
                <path id="Line_1337" d="M0 0L48.1 0" class="cls-4" transform="translate(225.2 46.2)"/>
                <path id="Line_1338" d="M0 0L48 0" class="cls-4" transform="translate(140.1 104.7)"/>
                <path id="Line_1339" d="M0 0L48.1 0" class="cls-4" transform="translate(193.9 104.7)"/>
                <path id="Line_1340" d="M0 0L116 0" class="cls-4" transform="translate(132.7 90.2)"/>
                <path id="Line_1341" d="M0 0L32.4 0" class="cls-4" transform="translate(280 90.2)"/>
                <path id="Line_1342" d="M0 0L57.7 0" class="cls-4" transform="translate(222.4 17.1)"/>
                <path id="Line_1343" d="M0 0L57.7 0" class="cls-4" transform="translate(172.5 31.6)"/>
                <path id="Line_1344" d="M0 0L10.2 0" class="cls-4" transform="translate(236.1 31.6)"/>
                <path id="Line_1345" d="M0 0L48 0" class="cls-4" transform="translate(140.1 60.7)"/>
                <path id="Line_1346" d="M0 0L57.7 0" class="cls-4" transform="translate(196 60.7)"/>
                <path id="Line_1347" d="M0 0L10.2 0" class="cls-4" transform="translate(259.6 60.7)"/>
                <path id="Path_8688" d="M339.2 83v-7l2-9" class="cls-3"/>
                <path id="Path_8689" d="M341.1 54.2c.1 5.1 1.3 10.2 8.2 10.5s8.9-5.1 9.2-10.2" class="cls-3"/>
                <path id="Path_8690" d="M345.5 46.4a15.5 15.5 0 0 0 11 1.7s1.5 6.6 2.4 6.6 2.1-2.9 1.6-6.9-3-10.1-10.5-10.5c-2.7-.1-2.5-1.9-3.3-1.9s-.1 2.5-.7 2.7-1.7-.9-2.2-.7-.1 1.9-.5 2.2a12.3 12.3 0 0 0-4.2 7.7c-.4 1.9-.1 6.8 1.9 7 .3 0-.3-2.1 1.7-3.7s.7-6.2 2.8-4.2z" class="cls-3"/>
                <path id="Path_8691" d="M342.9 66.6a6.8 6.8 0 0 0 6.9 5.9s6.2 0 6-6" class="cls-3"/>
                <path id="Path_8692" d="M345.2 64v2c-2.7.3-10 1.9-12.1 5.5s-1.9 4.1-1.9 11.5h38c0-7.4.1-8.2-1.9-11.5s-9.8-5.1-13.1-5.5v-2" class="cls-3"/>
                <path id="Path_8693" d="M361.2 83v-7l-3-9" class="cls-3"/>
                <path id="Line_1348" d="M0 0L16 0" class="cls-4" transform="translate(342.2 75)"/>
                <path id="Line_1349" d="M0 0L16 0" class="cls-4" transform="translate(342.2 79)"/>
                <circle id="Ellipse_101" cx="2.4" cy="2.4" r="2.4" class="cls-3" transform="translate(350.8 50.8)"/>
                <circle id="Ellipse_102" cx="2.4" cy="2.4" r="2.4" class="cls-3" transform="translate(344 50.8)"/>
                <path id="Line_1350" d="M0 0L1 0" class="cls-3" transform="translate(349.2 53)"/>
                <path id="Path_8694" d="M347.2 39.9c.7 1.3 4.4 2.6 6 2.5" class="cls-3"/>
                <path id="Path_8695" d="M374.2 18.6c-.2 5-1.7 10.6-9.6 10.3s-8.3-4.8-8.4-9.5V13s10.3 2.2 18 0z" class="cls-5"/>
                <path id="Path_8696" d="M360.2 28v4l3.5 6.1a1.7 1.7 0 0 0 3 0l3.5-6.1v-4" class="cls-5"/>
                <path id="Path_8697" d="M364.2 49h19.9c0-7.9.1-8.8-1.8-12.3s-9.5-5.4-12.1-5.7" class="cls-3"/>
                <path id="Path_8698" d="M360.2 31a30.1 30.1 0 0 0-7 2" class="cls-5"/>
                <path id="Line_1351" d="M0 0L0 4" class="cls-4" transform="translate(376.2 43)"/>
                <path id="Path_8699" d="M356.2 20c-2.4-1.5-5.6-9.6.1-15.4 4.1-4.1 12.8-5.7 18.3.6 2.7 3 4.9 10.9-.5 14.8" class="cls-5"/>
                <path id="Path_8700" d="M363.2 18.5a1.5 1.5 0 1 1-1.5-1.5 1.5 1.5 0 0 1 1.5 1.5" class="cls-6"/>
                <path id="Path_8701" d="M370.2 18.5a1.5 1.5 0 1 1-1.5-1.5 1.5 1.5 0 0 1 1.5 1.5" class="cls-6"/>
                <path id="Line_1352" d="M0 10L0 0" class="cls-4" transform="translate(365.2 39)"/>
                <path id="Path_8702" d="M324.1 19.5c.1 4.7 1.3 9.2 8.1 9.5s9-5.3 9.2-10.3" class="cls-5"/>
                <path id="Path_8703" d="M341.4 19.1c-.4.1.6-2.1-1.8-3.8a3.3 3.3 0 0 1-1.4-3 1.1 1.1 0 0 0-1.8-.8 12.5 12.5 0 0 1-6.9 2.3 1.8 1.8 0 0 0-1.8 1.2 12 12 0 0 1-3.8 4.8" class="cls-5"/>
                <path id="Path_8704" d="M327.2 28v3l4 7.1a1.7 1.7 0 0 0 3 0l3.9-7.1v-4" class="cls-5"/>
                <path id="Path_8705" d="M334.2 49h-20c0-7.9.2-9.4 1.8-12.3s8.6-5.4 11.2-5.7" class="cls-3"/>
                <path id="Path_8706" d="M338.2 31a26.4 26.4 0 0 1 5 1.3" class="cls-5"/>
                <path id="Line_1353" d="M0 0L0 8" class="cls-5" transform="translate(322.2 41)"/>
                <path id="Path_8707" d="M320.2 33V15.7a13.7 13.7 0 0 1 1.8-7.3c3.4-5.2 8.9-5.6 12.2-5.4s5.7.9 6 6c0 0 5.2-1.2 5 5v16" class="cls-5"/>
                <path id="Line_1354" d="M0 0L0 10" class="cls-5" transform="translate(333.2 39)"/>
                <path id="Path_8708" d="M331.2 19.5a1.5 1.5 0 1 1-1.5-1.5 1.5 1.5 0 0 1 1.5 1.5" class="cls-6"/>
                <path id="Path_8709" d="M337.2 19.5a1.5 1.5 0 1 1-1.5-1.5 1.5 1.5 0 0 1 1.5 1.5" class="cls-6"/>
                <path id="Path_8710" d="M333.3 13.1a11.1 11.1 0 0 1-7.8-.3" class="cls-5"/>
                <path id="Path_8711" d="M322.5 20.7a9.5 9.5 0 0 0 2.6-1.9" class="cls-5"/>
                <circle id="Ellipse_103" cx="1.5" cy="1.5" r="1.5" class="cls-4" transform="translate(326.2 42)"/>
                <path id="Path_8712" d="M327 8.3a14.9 14.9 0 0 0 5.7 1.4" class="cls-3"/>
                <path id="Path_8713" fill="none" stroke="#869196" stroke-miterlimit="10" stroke-width="2px" d="M422.5 90.6c.5.1 1.2.1 1.1.7s0 1.2-.4 1.3-.9 2.6-1.2 3.3a5.53 5.53 0 0 1-4 2.2c-1.7 0-2.8-.2-3.7-1.4a8.7 8.7 0 0 1-1.2-2.2 2.252 2.252 0 0 0-.8-1.4h-.3a3.223 3.223 0 0 0-.8 1.4 8.7 8.7 0 0 1-1.2 2.2 4.258 4.258 0 0 1-3.7 1.4c-1.4 0-3.3-.4-4-2.2s-.3-3.1-1.2-3.3-.3-1-.4-1.3.6-.7 1.1-.7a19.8 19.8 0 0 1 3.5-.1 30.8 30.8 0 0 1 6.4 1h.6a30.8 30.8 0 0 1 6.4-1 19.8 19.8 0 0 1 3.8.1z"/>
                <path id="Path_8714" d="M403.7 84a9.7 9.7 0 0 1-.8 3.9c-2.4 3.9-4.7 3.9-4.7 3.9" class="cls-8"/>
                <path id="Path_8715" d="M428.6 112.5l-3.7 7 3.9 2.9-6 9.7" class="cls-4"/>
                <path id="Path_8716" d="M398.2 111.5l4.8 8-3.9 2.9 6 9.7" class="cls-4"/>
                <path id="Path_8717" d="M407.7 86.4c6.6 1.3 11.5-5.2 11.5-5.2 2.8-2.7.9 5.3 4.1 7.5s1 4.9 1.6 4.7c4.4-1.1 4.4-7.6 3.9-10.2-2-10.8-11-12.5-16.1-12.6-9.5 0-14.9 8-15.3 13.3-.8 10.2 2.3 7.8 2.3 7.8.1 6.8 3.8 16.1 13 16.5s11.9-7.7 12.2-14.9" class="cls-8"/>
                <path id="Path_8718" d="M401.3 73a9.3 9.3 0 0 1 1.6-4.4c4.1-5.9 13.5-6.2 18-1.9a10.3 10.3 0 0 1 2.7 4.9" class="cls-8"/>
                <path id="Path_8719" d="M406 106v4.7l5.9 17.5c.9 1.8 1.6 1.8 2.6 0l5.7-17.5V106" class="cls-8"/>
                <path id="Path_8720" d="M406 109.9c-3.6.5-12.6 2.7-15.5 7.8s-2.6 5.9-2.5 16.5h51c.1-10.6.1-11.8-2.5-16.5s-12.7-7.4-16.3-7.8" class="cls-8"/>
                <path id="Path_8721" d="M403.1 83a6.5 6.5 0 0 0 4.6 3.3" class="cls-8"/>
                <path id="Path_8722" d="M228.5 227.4v-19.6l-10.6-6v-13.4l-20.2-12.3-10.8 6.4-10.7-6.4-20.2 12.3v13.4l-10.7 6v20.3L156 234v13.4l20.9 12.4 9.4-5.6 9.6 5.6 20.9-12.4V234z" class="cls-4"/>
                <path id="Path_8723" d="M172 245.9h-8.5v-16h-15.2" class="cls-9"/>
                <path id="Line_1355" d="M15 0L0 0" class="cls-9" transform="translate(154.9 194.7)"/>
                <path id="Line_1356" d="M0 12.8L0 0" class="cls-9" transform="translate(162.4 194.7)"/>
                <path id="Line_1357" d="M0 72.9L0 0" class="cls-4" transform="translate(186.9 181.9)"/>
                <path id="Path_8724" d="M173.1 224.5v-15.9h12.8" class="cls-9"/>
                <path id="Path_8725" d="M200.8 228.8h7.5v-11.7h20.2" class="cls-9"/>
                <path id="Path_8726" d="M205.1 242.7h-6.4v15.6" class="cls-9"/>
                <path id="Path_8727" d="M176.3 195.2a3.7 3.7 0 1 1-3.7-3.7 3.7 3.7 0 0 1 3.7 3.7z" class="cls-9"/>
                <path id="Path_8728" d="M165.6 211.2a3.7 3.7 0 1 1-3.7-3.7 3.7 3.7 0 0 1 3.7 3.7z" class="cls-9"/>
                <path id="Path_8729" d="M177.3 228.3a3.7 3.7 0 1 1-3.7-3.7 3.7 3.7 0 0 1 3.7 3.7z" class="cls-9"/>
                <path id="Path_8730" d="M179.5 245.4a3.7 3.7 0 1 1-3.7-3.7 3.7 3.7 0 0 1 3.7 3.7z" class="cls-9"/>
                <path id="Path_8731" d="M200.8 229.4a3.7 3.7 0 1 1-3.7-3.7 3.7 3.7 0 0 1 3.7 3.7z" class="cls-9"/>
                <path id="Path_8732" d="M212.5 242.2a3.7 3.7 0 1 1-3.7-3.7 3.7 3.7 0 0 1 3.7 3.7z" class="cls-9"/>
                <path id="Path_8733" d="M205.1 195.7v4.3h-18.2" class="cls-9"/>
                <path id="Line_1358" d="M0 7.5L0 0" class="cls-9" transform="translate(196.5 200)"/>
                <path id="Path_8734" d="M199.7 211.2a3.7 3.7 0 1 1-3.7-3.7 3.7 3.7 0 0 1 3.7 3.7z" class="cls-9"/>
                <path id="Path_8735" d="M208.3 192a3.7 3.7 0 1 1-3.7-3.7 3.7 3.7 0 0 1 3.7 3.7z" class="cls-9"/>
                <path id="Path_8736" d="M81.5 108.3H6.4a1.4 1.4 0 0 1-1.4-1.5V57.6a1.4 1.4 0 0 1 1.4-1.4h75.1a1.4 1.4 0 0 1 1.5 1.4v49.3a1.4 1.4 0 0 1-1.5 1.4z" class="cls-3"/>
                <path id="Path_8737" d="M59 76.3h-9v-10H39v10H29v11h10v10h11v-10h9z" class="cls-4"/>
                <path id="Path_8738" d="M58 53.1v-9.7a1.1 1.1 0 0 0-1.1-1.1H31a1.1 1.1 0 0 0-1 1.1v9.7" class="cls-3"/>
                <path id="Path_8739" d="M35 53.2v-5.9h18v5.9" class="cls-3"/>
                <path id="Line_1359" d="M0 0L0 14" class="cls-3" transform="translate(13 90.3)"/>
                <path id="Line_1360" d="M0 0L0 12" class="cls-3" transform="translate(13 72.3)"/>
                <path id="Line_1361" d="M0 0L0 8" class="cls-3" transform="translate(13 60.3)"/>
                <path id="Line_1362" d="M0 13L0 0" class="cls-3" transform="translate(74 60.3)"/>
                <path id="Line_1363" d="M0 13L0 0" class="cls-3" transform="translate(74 79.3)"/>
                <path id="Line_1364" d="M0 9L0 0" class="cls-3" transform="translate(74 95.3)"/>
                <path id="Line_1365" d="M0 0L0 44" class="cls-3" transform="translate(20 60.3)"/>
                <path id="Line_1366" d="M0 0L0 44" class="cls-3" transform="translate(67 60.3)"/>
            </g>
        </g>
    </g>
</svg>
